<?xml version="1.0" encoding="UTF-8" standalone="no"?>
<!DOCTYPE svg PUBLIC "-//W3C//DTD SVG 1.1//EN" "http://www.w3.org/Graphics/SVG/1.1/DTD/svg11.dtd">
<svg xmlns="http://www.w3.org/2000/svg" version="1.1" viewBox="0.00 0.00 128.00 128.00" width="128.00" height="128.00">
<path fill="#000000" d="
  M 91.22 52.69
  Q 91.98 52.75 92.61 53.31
  A 1.23 1.21 -21.6 0 0 93.34 53.62
  Q 95.42 53.76 97.02 55.26
  A 0.74 0.74 0.0 0 1 96.90 56.43
  Q 95.53 57.30 94.55 58.62
  A 1.53 1.52 17.2 0 1 93.36 59.24
  C 92.13 59.27 91.21 58.40 89.95 58.18
  C 87.50 57.75 85.72 57.03 83.21 58.20
  C 79.13 60.11 75.29 59.16 71.23 59.28
  Q 68.94 59.34 66.82 58.74
  Q 62.62 57.54 58.73 58.74
  C 54.82 59.95 50.51 59.71 46.21 59.23
  C 42.86 58.85 39.84 57.47 36.59 59.15
  Q 34.24 60.36 31.54 60.08
  A 1.14 1.13 86.0 0 1 30.55 59.21
  Q 29.97 56.71 32.04 55.73
  C 36.30 53.74 40.31 52.56 45.08 53.70
  C 49.19 54.67 53.26 54.92 57.31 53.69
  Q 59.40 53.06 61.66 53.08
  C 65.12 53.11 68.75 51.78 71.89 53.70
  Q 72.30 53.96 72.78 53.97
  Q 76.02 54.06 79.17 53.74
  C 80.29 53.62 80.71 52.73 82.11 52.65
  Q 87.26 52.35 91.22 52.69
  Z"
/>
<path fill="#000000" d="
  M 49.86 77.33
  Q 46.68 76.80 43.40 75.55
  C 40.96 74.62 38.08 74.63 36.05 76.50
  C 34.98 77.50 33.47 77.81 32.07 77.57
  A 1.31 1.31 0.0 0 1 31.06 75.84
  C 31.71 74.00 32.97 71.21 35.06 70.51
  C 38.70 69.28 43.37 68.64 46.87 70.53
  C 48.96 71.66 51.73 72.20 54.02 71.34
  Q 57.51 70.03 61.30 68.86
  Q 62.04 68.63 62.75 68.79
  C 63.74 69.00 64.80 68.80 65.67 69.31
  Q 67.43 70.35 69.47 71.15
  C 70.86 71.69 71.86 71.20 73.32 71.31
  Q 74.18 71.38 75.00 71.05
  Q 82.05 68.20 89.99 68.51
  Q 90.51 68.53 90.94 68.84
  Q 94.23 71.20 97.86 72.36
  Q 100.48 73.20 98.49 75.10
  Q 98.05 75.51 97.49 76.04
  Q 95.46 77.96 93.03 76.58
  L 87.83 73.64
  Q 87.32 73.35 86.72 73.37
  C 85.36 73.42 84.07 73.32 82.75 73.74
  Q 80.01 74.62 77.41 75.74
  Q 75.04 76.76 72.47 76.56
  Q 67.84 76.20 62.84 74.63
  Q 61.35 74.16 59.89 74.63
  Q 56.35 75.76 53.34 76.95
  A 6.60 6.57 -51.1 0 1 49.86 77.33
  Z"
/>
</svg>
