<?xml version="1.0" encoding="UTF-8" standalone="no"?>
<!DOCTYPE svg PUBLIC "-//W3C//DTD SVG 1.1//EN" "http://www.w3.org/Graphics/SVG/1.1/DTD/svg11.dtd">
<svg xmlns="http://www.w3.org/2000/svg" version="1.1" viewBox="0.00 0.00 128.00 128.00" width="128.00" height="128.00">
<path fill="#000000" d="
  M 57.90 19.65
  Q 62.14 17.96 65.43 17.83
  C 68.54 17.71 73.73 21.36 75.19 24.36
  Q 78.92 31.99 78.41 41.76
  C 78.14 47.06 74.59 50.27 71.02 53.42
  C 68.34 55.80 64.84 56.12 61.99 58.30
  Q 61.55 58.64 61.01 58.49
  Q 57.10 57.32 53.92 55.38
  Q 52.47 54.50 51.75 52.82
  Q 49.66 47.94 49.13 44.60
  Q 48.39 39.91 48.77 34.54
  C 49.19 28.80 52.24 21.91 57.90 19.65
  Z"
/>
<path fill="#000000" d="
  M 78.82 83.95
  C 74.34 85.14 74.53 76.76 71.80 74.72
  C 69.19 72.77 66.41 70.25 66.48 66.69
  Q 66.53 63.44 70.24 62.43
  Q 70.85 62.26 71.27 62.73
  Q 74.38 66.25 78.25 69.57
  C 81.51 72.36 82.90 75.24 82.51 79.58
  Q 82.19 83.06 78.82 83.95
  Z"
/>
<path fill="#000000" d="
  M 49.07 73.70
  C 46.43 78.42 52.19 84.28 45.59 87.41
  Q 43.81 88.25 41.05 87.15
  C 37.80 85.87 34.65 83.06 35.91 79.30
  Q 36.95 76.21 39.10 74.13
  C 42.92 70.45 45.82 66.02 50.84 63.68
  Q 55.38 61.57 53.13 66.04
  Q 51.14 69.99 49.07 73.70
  Z"
/>
<path fill="#000000" d="
  M 69.89 104.22
  Q 67.01 108.49 61.38 110.83
  C 59.11 111.77 57.12 112.28 55.06 110.39
  C 47.05 103.04 54.00 93.69 57.84 86.69
  C 60.59 81.66 57.28 77.68 54.70 73.63
  C 52.08 69.49 56.94 66.75 59.50 64.60
  C 60.79 63.52 62.43 63.82 63.00 65.54
  A 1.71 1.69 -43.4 0 1 62.96 66.75
  Q 61.94 69.15 63.40 71.23
  Q 65.93 74.84 68.85 77.95
  Q 71.22 80.46 72.23 83.00
  Q 76.69 94.13 69.89 104.22
  Z"
/>
</svg>
