<?xml version="1.0" encoding="UTF-8" standalone="no"?>
<!DOCTYPE svg PUBLIC "-//W3C//DTD SVG 1.1//EN" "http://www.w3.org/Graphics/SVG/1.1/DTD/svg11.dtd">
<svg xmlns="http://www.w3.org/2000/svg" version="1.1" viewBox="0.00 0.00 128.00 128.00">
<g stroke-width="2.00" fill="none" stroke-linecap="butt">
<path stroke="#444544" vector-effect="non-scaling-stroke" d="
  M 88.56 53.20
  Q 86.86 53.87 85.44 54.67
  Q 82.16 56.52 80.08 55.07"
/>
<path stroke="#444544" vector-effect="non-scaling-stroke" d="
  M 80.79 51.34
  L 83.58 40.63"
/>
<path stroke="#3c3d3c" vector-effect="non-scaling-stroke" d="
  M 76.66 54.08
  Q 76.00 51.25 76.15 48.37
  Q 76.29 45.62 75.81 43.69
  Q 74.79 39.64 73.81 34.86
  Q 73.39 32.81 70.88 30.19
  Q 70.52 29.83 70.02 29.92
  Q 68.36 30.21 66.48 31.69"
/>
<path stroke="#3c3d3c" vector-effect="non-scaling-stroke" d="
  M 74.77 56.26
  Q 72.12 57.45 69.41 57.11
  Q 68.90 57.04 68.59 56.63
  L 65.72 52.81"
/>
<path stroke="#3c3d3c" vector-effect="non-scaling-stroke" d="
  M 64.19 40.67
  Q 61.30 35.00 55.77 36.08"
/>
<path stroke="#3c3d3c" vector-effect="non-scaling-stroke" d="
  M 56.90 48.36
  Q 56.66 46.08 54.73 44.79"
/>
<path stroke="#3c3d3c" vector-effect="non-scaling-stroke" d="
  M 98.27 60.85
  Q 97.97 61.45 97.40 61.05
  Q 97.09 60.83 96.92 60.45
  Q 96.12 58.63 95.34 56.93
  Q 95.12 56.44 94.58 56.48
  Q 90.98 56.72 88.22 58.00
  Q 85.52 59.24 82.45 59.80
  Q 78.04 60.60 73.66 61.12
  Q 70.71 61.47 67.88 60.47
  Q 59.53 57.51 53.16 51.39
  C 51.20 49.50 49.86 47.19 47.69 45.61
  C 47.16 45.23 46.75 44.39 46.69 43.75
  A 0.88 0.88 0.0 0 0 45.31 43.11
  Q 41.85 45.56 37.02 44.59
  Q 32.26 43.63 27.67 42.81
  A 1.05 1.04 28.0 0 0 26.77 43.08
  L 24.69 45.08"
/>
<path stroke="#191a19" vector-effect="non-scaling-stroke" d="
  M 96.39 81.42
  L 95.87 86.45
  A 1.23 1.20 -18.5 0 1 95.48 87.21
  Q 93.53 88.94 93.37 91.37"
/>
<path stroke="#191a19" vector-effect="non-scaling-stroke" d="
  M 69.15 94.82
  Q 66.20 93.69 64.33 95.01"
/>
<path stroke="#3c3d3c" vector-effect="non-scaling-stroke" d="
  M 58.56 95.02
  Q 55.00 95.17 51.46 95.31
  Q 50.85 95.33 45.58 94.99
  Q 41.15 94.70 38.69 97.09"
/>
<path stroke="#3c3d3c" vector-effect="non-scaling-stroke" d="
  M 36.37 92.64
  Q 35.53 89.48 34.77 86.18
  Q 34.43 84.73 33.74 83.71
  Q 32.94 82.52 32.25 81.23
  Q 32.01 80.78 32.02 80.26
  Q 32.11 76.88 30.86 74.01"
/>
<path stroke="#3c3d3c" vector-effect="non-scaling-stroke" d="
  M 28.45 65.47
  Q 27.97 61.83 26.02 58.25"
/>
<path stroke="#3c3d3c" vector-effect="non-scaling-stroke" d="
  M 25.89 56.69
  Q 26.39 53.04 24.54 49.93"
/>
</g>
<path fill="#212221" d="
  M 88.56 53.20
  Q 86.86 53.87 85.44 54.67
  Q 82.16 56.52 80.08 55.07
  Q 79.69 52.94 80.79 51.34
  L 83.58 40.63
  Q 85.69 34.43 90.36 28.60
  Q 92.70 25.67 95.04 24.37
  Q 97.87 22.81 101.20 22.48
  A 0.52 0.52 0.0 0 1 101.77 22.99
  C 101.84 25.37 101.86 27.58 100.96 29.89
  Q 98.77 35.47 97.46 41.25
  C 96.99 43.33 95.50 44.35 94.85 46.28
  Q 94.68 46.79 94.16 46.92
  C 93.59 47.07 93.28 47.31 92.96 47.80
  Q 90.97 50.88 88.56 53.20
  Z"
/>
<path fill="#666867" d="
  M 76.66 54.08
  Q 76.00 51.25 76.15 48.37
  Q 76.29 45.62 75.81 43.69
  Q 74.79 39.64 73.81 34.86
  Q 73.39 32.81 70.88 30.19
  Q 70.52 29.83 70.02 29.92
  Q 68.36 30.21 66.48 31.69
  Q 67.58 27.83 71.67 29.67
  Q 72.17 29.89 72.40 30.38
  C 73.34 32.32 74.83 33.76 75.08 36.03
  Q 75.38 38.69 76.41 41.09
  Q 77.33 43.24 77.56 45.44
  Q 78.02 49.96 76.66 54.08
  Z"
/>
<path fill="#111111" d="
  M 76.66 54.08
  L 74.77 56.26
  Q 72.12 57.45 69.41 57.11
  Q 68.90 57.04 68.59 56.63
  L 65.72 52.81
  Q 66.23 50.14 67.28 47.25
  Q 68.16 44.83 67.85 40.35
  Q 67.77 39.28 66.90 36.10
  Q 66.30 33.90 66.48 31.69
  Q 68.36 30.21 70.02 29.92
  Q 70.52 29.83 70.88 30.19
  Q 73.39 32.81 73.81 34.86
  Q 74.79 39.64 75.81 43.69
  Q 76.29 45.62 76.15 48.37
  Q 76.00 51.25 76.66 54.08
  Z"
/>
<path fill="#666867" d="
  M 64.19 40.67
  Q 61.30 35.00 55.77 36.08
  Q 57.07 33.63 59.54 34.74
  Q 63.21 36.38 64.19 40.67
  Z"
/>
<path fill="#111111" d="
  M 55.77 36.08
  Q 61.30 35.00 64.19 40.67
  Q 64.22 45.16 61.19 49.69
  A 2.21 2.21 0.0 0 1 58.08 50.27
  Q 57.18 49.63 56.90 48.36
  Q 56.66 46.08 54.73 44.79
  Q 53.40 40.69 55.77 36.08
  Z"
/>
<path fill="#666867" d="
  M 83.58 40.63
  L 80.79 51.34
  Q 81.32 46.16 83.58 40.63
  Z"
/>
<path fill="#666867" d="
  M 98.27 60.85
  Q 97.97 61.45 97.40 61.05
  Q 97.09 60.83 96.92 60.45
  Q 96.12 58.63 95.34 56.93
  Q 95.12 56.44 94.58 56.48
  Q 90.98 56.72 88.22 58.00
  Q 85.52 59.24 82.45 59.80
  Q 78.04 60.60 73.66 61.12
  Q 70.71 61.47 67.88 60.47
  Q 59.53 57.51 53.16 51.39
  C 51.20 49.50 49.86 47.19 47.69 45.61
  C 47.16 45.23 46.75 44.39 46.69 43.75
  A 0.88 0.88 0.0 0 0 45.31 43.11
  Q 41.85 45.56 37.02 44.59
  Q 32.26 43.63 27.67 42.81
  A 1.05 1.04 28.0 0 0 26.77 43.08
  L 24.69 45.08
  L 25.41 42.52
  Q 25.66 41.66 26.56 41.63
  C 29.82 41.55 32.24 43.00 35.26 43.31
  Q 39.52 43.74 43.62 43.24
  Q 44.31 43.15 44.91 42.79
  Q 45.45 42.47 46.03 42.40
  Q 46.55 42.34 46.84 42.77
  Q 54.29 53.52 64.91 58.47
  C 66.91 59.40 69.06 59.39 70.99 60.31
  A 1.83 1.80 51.5 0 0 72.13 60.45
  C 73.67 60.15 75.12 60.36 76.67 59.98
  Q 80.01 59.14 83.44 58.79
  C 87.32 58.38 90.40 56.00 94.39 55.50
  A 2.00 2.00 0.0 0 1 96.61 57.16
  Q 96.91 59.08 98.27 60.85
  Z"
/>
<path fill="#111111" d="
  M 98.27 60.85
  L 96.39 81.42
  L 95.87 86.45
  A 1.23 1.20 -18.5 0 1 95.48 87.21
  Q 93.53 88.94 93.37 91.37
  L 91.72 93.84
  Q 91.42 94.30 90.87 94.29
  Q 89.61 94.27 88.65 95.01
  Q 88.16 95.40 87.53 95.38
  L 69.15 94.82
  Q 66.20 93.69 64.33 95.01
  L 58.56 95.02
  Q 55.00 95.17 51.46 95.31
  Q 50.85 95.33 45.58 94.99
  Q 41.15 94.70 38.69 97.09
  Q 37.37 98.45 36.37 92.64
  Q 35.53 89.48 34.77 86.18
  Q 34.43 84.73 33.74 83.71
  Q 32.94 82.52 32.25 81.23
  Q 32.01 80.78 32.02 80.26
  Q 32.11 76.88 30.86 74.01
  L 28.45 65.47
  Q 27.97 61.83 26.02 58.25
  L 25.89 56.69
  Q 26.39 53.04 24.54 49.93
  Q 23.74 47.11 24.69 45.08
  L 26.77 43.08
  A 1.05 1.04 28.0 0 1 27.67 42.81
  Q 32.26 43.63 37.02 44.59
  Q 41.85 45.56 45.31 43.11
  A 0.88 0.88 0.0 0 1 46.69 43.75
  C 46.75 44.39 47.16 45.23 47.69 45.61
  C 49.86 47.19 51.20 49.50 53.16 51.39
  Q 59.53 57.51 67.88 60.47
  Q 70.71 61.47 73.66 61.12
  Q 78.04 60.60 82.45 59.80
  Q 85.52 59.24 88.22 58.00
  Q 90.98 56.72 94.58 56.48
  Q 95.12 56.44 95.34 56.93
  Q 96.12 58.63 96.92 60.45
  Q 97.09 60.83 97.40 61.05
  Q 97.97 61.45 98.27 60.85
  Z"
/>
<path fill="#666867" d="
  M 54.73 44.79
  Q 56.66 46.08 56.90 48.36
  Q 55.46 47.08 54.73 44.79
  Z"
/>
<path fill="#666867" d="
  M 24.54 49.93
  Q 26.39 53.04 25.89 56.69
  L 24.54 49.93
  Z"
/>
<path fill="#666867" d="
  M 65.72 52.81
  L 68.59 56.63
  Q 68.90 57.04 69.41 57.11
  Q 72.12 57.45 74.77 56.26
  L 72.19 58.26
  Q 71.73 58.62 71.29 58.23
  Q 70.44 57.47 69.26 57.69
  A 1.33 1.33 0.0 0 1 68.11 57.35
  Q 66.02 55.38 65.72 52.81
  Z"
/>
<path fill="#666867" d="
  M 88.56 53.20
  C 86.96 54.27 82.30 58.12 80.40 56.31
  Q 79.84 55.78 80.08 55.07
  Q 82.16 56.52 85.44 54.67
  Q 86.86 53.87 88.56 53.20
  Z"
/>
<path fill="#666867" d="
  M 26.02 58.25
  Q 27.97 61.83 28.45 65.47
  L 26.02 58.25
  Z"
/>
<path fill="#666867" d="
  M 30.86 74.01
  Q 32.11 76.88 32.02 80.26
  Q 32.01 80.78 32.25 81.23
  Q 32.94 82.52 33.74 83.71
  Q 34.43 84.73 34.77 86.18
  Q 35.53 89.48 36.37 92.64
  Q 35.14 89.61 34.20 86.26
  Q 33.89 85.17 32.09 82.69
  Q 31.80 82.29 31.74 81.79
  L 30.86 74.01
  Z"
/>
<path fill="#212221" d="
  M 96.39 81.42
  L 96.47 86.27
  Q 96.48 86.77 96.20 87.18
  L 93.37 91.37
  Q 93.53 88.94 95.48 87.21
  A 1.23 1.20 -18.5 0 0 95.87 86.45
  L 96.39 81.42
  Z"
/>
<path fill="#212221" d="
  M 69.15 94.82
  L 64.33 95.01
  Q 66.20 93.69 69.15 94.82
  Z"
/>
<path fill="#666867" d="
  M 58.56 95.02
  C 56.62 96.41 55.35 95.29 53.39 96.23
  A 1.83 1.80 34.2 0 1 52.46 96.40
  Q 48.81 96.12 44.85 96.08
  C 44.34 96.08 44.23 96.24 43.77 96.37
  Q 43.52 96.44 43.26 96.40
  Q 41.35 96.10 38.69 97.09
  Q 41.15 94.70 45.58 94.99
  Q 50.85 95.33 51.46 95.31
  Q 55.00 95.17 58.56 95.02
  Z"
/>
</svg>
