<?xml version="1.0" encoding="UTF-8" standalone="no"?>
<!DOCTYPE svg PUBLIC "-//W3C//DTD SVG 1.1//EN" "http://www.w3.org/Graphics/SVG/1.1/DTD/svg11.dtd">
<svg xmlns="http://www.w3.org/2000/svg" version="1.1" viewBox="0.00 0.00 128.00 128.00">
<g stroke-width="2.00" fill="none" stroke-linecap="butt">
<path stroke="#8f8c9b" vector-effect="non-scaling-stroke" d="
  M 74.56 41.24
  Q 75.90 41.10 77.06 41.32
  Q 78.84 41.65 79.47 41.47
  Q 80.94 41.06 81.77 39.84
  A 1.21 1.19 -71.2 0 1 82.81 39.32
  Q 84.58 39.39 85.02 37.83
  Q 85.17 37.30 84.65 37.10
  Q 83.84 36.81 83.95 36.35"
/>
<path stroke="#595960" vector-effect="non-scaling-stroke" d="
  M 50.02 43.16
  L 48.86 42.03
  Q 48.52 41.70 48.07 41.83
  Q 47.13 42.11 46.54 41.28"
/>
<path stroke="#595960" vector-effect="non-scaling-stroke" d="
  M 40.55 26.08
  Q 42.01 28.14 41.65 31.26
  Q 41.41 33.31 42.87 36.38
  Q 43.35 37.38 44.33 37.89
  C 45.97 38.75 47.23 39.65 48.60 40.89
  Q 49.63 41.81 50.97 42.44
  Q 52.92 43.35 53.22 45.47
  Q 53.31 46.17 54.01 46.14
  C 56.38 46.05 58.17 47.23 60.68 47.17
  C 65.37 47.05 69.61 46.32 72.57 42.74
  A 2.87 2.86 37.2 0 0 71.99 38.56
  C 70.53 37.56 68.60 37.07 66.80 37.05
  Q 63.23 36.99 60.36 35.84
  Q 58.60 35.13 56.60 34.98
  Q 52.22 34.63 49.36 31.60
  Q 48.08 30.23 46.66 29.04
  Q 45.03 27.68 43.42 26.20
  C 42.70 25.54 41.88 25.61 40.97 25.81"
/>
<path stroke="#8f8c9b" vector-effect="non-scaling-stroke" d="
  M 82.59 36.26
  Q 82.70 36.60 82.44 36.80
  Q 82.25 36.95 82.01 36.92
  Q 79.07 36.64 78.19 39.12
  Q 78.02 39.60 77.62 39.29
  Q 77.45 39.15 77.28 38.86"
/>
<path stroke="#8f8c9b" vector-effect="non-scaling-stroke" d="
  M 73.52 57.99
  Q 73.28 58.64 73.34 59.04
  Q 73.36 59.23 73.38 59.04
  Q 73.41 58.71 73.14 58.78"
/>
<path stroke="#595960" vector-effect="non-scaling-stroke" d="
  M 73.14 58.78
  C 73.49 56.12 68.79 54.95 66.95 55.03
  Q 63.71 55.17 60.52 53.85
  Q 58.76 53.13 57.00 53.11
  Q 51.54 53.06 47.91 48.59
  C 46.56 46.93 44.75 46.10 43.49 44.29
  Q 43.28 43.99 42.92 43.89
  Q 42.24 43.69 41.54 43.90
  Q 40.99 44.05 41.20 44.58
  Q 42.50 47.82 42.35 51.62
  Q 42.25 54.22 44.19 55.63
  Q 46.29 57.14 48.42 58.83
  C 49.80 59.92 51.74 60.51 52.86 62.26"
/>
<path stroke="#8f8c9b" vector-effect="non-scaling-stroke" d="
  M 52.86 62.26
  Q 52.11 64.86 54.83 64.07"
/>
<path stroke="#595960" vector-effect="non-scaling-stroke" d="
  M 54.83 64.07
  C 57.10 64.65 58.85 65.51 61.26 65.22
  Q 63.00 65.00 64.73 64.79
  Q 69.33 64.22 72.51 60.94"
/>
<path stroke="#8f8c9b" vector-effect="non-scaling-stroke" d="
  M 72.51 60.94
  Q 74.02 60.52 74.57 59.25"
/>
<path stroke="#8f8c9b" vector-effect="non-scaling-stroke" d="
  M 74.70 59.02
  Q 75.92 59.44 77.33 59.45
  Q 78.15 59.46 77.55 60.01
  Q 77.51 60.04 77.46 60.05
  Q 76.87 60.09 76.82 60.69
  Q 76.82 60.74 76.84 60.79
  Q 76.97 61.08 77.29 61.12
  Q 78.08 61.23 78.34 60.48
  A 0.94 0.92 1.6 0 1 78.98 59.89
  Q 80.60 59.46 81.75 58.17
  A 1.57 1.55 -71.4 0 1 82.80 57.64
  Q 83.78 57.56 84.61 57.09
  Q 85.46 56.60 85.18 55.83
  Q 85.01 55.36 84.52 55.27
  Q 83.66 55.10 83.64 54.45"
/>
<path stroke="#595960" vector-effect="non-scaling-stroke" d="
  M 49.95 61.15
  L 46.38 59.27"
/>
<path stroke="#373542" vector-effect="non-scaling-stroke" d="
  M 73.14 58.78
  L 72.51 60.94"
/>
<path stroke="#373542" vector-effect="non-scaling-stroke" d="
  M 54.83 64.07
  Q 53.49 63.79 52.86 62.26"
/>
<path stroke="#8f8c9b" vector-effect="non-scaling-stroke" d="
  M 82.69 54.13
  Q 83.02 54.41 82.84 54.84
  A 0.77 0.77 0.0 0 1 82.04 55.30
  Q 81.75 55.26 81.48 55.14
  Q 81.01 54.91 80.52 55.09
  L 78.10 55.99"
/>
<path stroke="#595960" vector-effect="non-scaling-stroke" d="
  M 73.10 76.07
  Q 69.93 74.26 64.24 73.91
  Q 63.15 73.84 60.05 72.76
  Q 58.17 72.10 56.32 72.05
  Q 53.98 71.98 52.32 70.86
  Q 47.81 67.79 43.38 63.11
  Q 42.61 62.30 40.98 62.76"
/>
<path stroke="#373542" vector-effect="non-scaling-stroke" d="
  M 74.77 77.74
  Q 74.70 77.78 74.63 77.82"
/>
<path stroke="#595960" vector-effect="non-scaling-stroke" d="
  M 74.63 77.82
  Q 71.63 81.75 68.26 83.00
  Q 61.95 85.35 53.89 82.73
  Q 53.42 82.58 53.27 82.12
  Q 52.38 79.49 49.47 78.84
  A 1.34 1.30 76.4 0 1 48.70 78.35
  C 46.19 75.01 41.89 75.13 42.39 69.75
  Q 42.68 66.54 40.58 63.48"
/>
<path stroke="#8f8c9b" vector-effect="non-scaling-stroke" d="
  M 74.63 77.82
  Q 79.07 79.84 81.89 76.91
  Q 82.19 76.60 82.61 76.49
  L 84.52 76.02
  A 1.04 1.04 0.0 0 0 84.89 74.19
  L 83.97 73.49"
/>
</g>
<path fill="#b2b1b9" fill-opacity="0.996" d="
  M 74.56 41.24
  Q 75.90 41.10 77.06 41.32
  Q 78.84 41.65 79.47 41.47
  Q 80.94 41.06 81.77 39.84
  A 1.21 1.19 -71.2 0 1 82.81 39.32
  Q 84.58 39.39 85.02 37.83
  Q 85.17 37.30 84.65 37.10
  Q 83.84 36.81 83.95 36.35
  Q 84.64 35.64 85.41 35.57
  Q 86.06 35.52 85.88 36.15
  Q 85.57 37.21 86.19 38.16
  A 1.12 1.11 -20.6 0 1 85.41 39.88
  C 84.13 40.06 83.03 40.26 82.01 41.09
  C 80.45 42.34 78.64 43.27 76.59 43.30
  Q 74.56 43.33 72.74 44.51
  Q 63.42 50.55 52.44 46.50
  A 1.32 1.32 0.0 0 1 51.65 45.71
  Q 51.08 44.19 50.02 43.16
  L 48.86 42.03
  Q 48.52 41.70 48.07 41.83
  Q 47.13 42.11 46.54 41.28
  C 44.57 38.78 41.65 38.39 41.11 34.43
  Q 40.56 30.40 40.55 26.08
  Q 42.01 28.14 41.65 31.26
  Q 41.41 33.31 42.87 36.38
  Q 43.35 37.38 44.33 37.89
  C 45.97 38.75 47.23 39.65 48.60 40.89
  Q 49.63 41.81 50.97 42.44
  Q 52.92 43.35 53.22 45.47
  Q 53.31 46.17 54.01 46.14
  C 56.38 46.05 58.17 47.23 60.68 47.17
  C 65.37 47.05 69.61 46.32 72.57 42.74
  A 2.87 2.86 37.2 0 0 71.99 38.56
  C 70.53 37.56 68.60 37.07 66.80 37.05
  Q 63.23 36.99 60.36 35.84
  Q 58.60 35.13 56.60 34.98
  Q 52.22 34.63 49.36 31.60
  Q 48.08 30.23 46.66 29.04
  Q 45.03 27.68 43.42 26.20
  C 42.70 25.54 41.88 25.61 40.97 25.81
  Q 41.43 24.85 42.16 24.51
  Q 42.63 24.29 43.00 24.65
  Q 45.06 26.62 47.96 27.78
  Q 48.49 27.99 48.80 28.48
  Q 51.29 32.47 56.10 34.21
  Q 56.57 34.38 57.05 34.24
  Q 58.25 33.89 59.49 33.78
  Q 60.71 33.66 62.01 34.13
  Q 65.59 35.42 69.36 36.30
  Q 71.39 36.78 72.74 38.23
  Q 73.11 38.63 73.22 39.17
  Q 73.51 40.65 74.56 41.24
  Z"
/>
<path fill="#010207" d="
  M 40.55 26.08
  L 40.97 25.81
  C 41.88 25.61 42.70 25.54 43.42 26.20
  Q 45.03 27.68 46.66 29.04
  Q 48.08 30.23 49.36 31.60
  Q 52.22 34.63 56.60 34.98
  Q 58.60 35.13 60.36 35.84
  Q 63.23 36.99 66.80 37.05
  C 68.60 37.07 70.53 37.56 71.99 38.56
  A 2.87 2.86 37.2 0 1 72.57 42.74
  C 69.61 46.32 65.37 47.05 60.68 47.17
  C 58.17 47.23 56.38 46.05 54.01 46.14
  Q 53.31 46.17 53.22 45.47
  Q 52.92 43.35 50.97 42.44
  Q 49.63 41.81 48.60 40.89
  C 47.23 39.65 45.97 38.75 44.33 37.89
  Q 43.35 37.38 42.87 36.38
  Q 41.41 33.31 41.65 31.26
  Q 42.01 28.14 40.55 26.08
  Z"
/>
<path fill="#b2b1b9" fill-opacity="0.996" d="
  M 82.59 36.26
  Q 82.70 36.60 82.44 36.80
  Q 82.25 36.95 82.01 36.92
  Q 79.07 36.64 78.19 39.12
  Q 78.02 39.60 77.62 39.29
  Q 77.45 39.15 77.28 38.86
  L 79.85 35.89
  Q 80.19 35.50 80.70 35.57
  Q 81.72 35.70 82.59 36.26
  Z"
/>
<path fill="#6c687d" d="
  M 82.59 36.26
  Q 83.35 36.57 83.95 36.35
  Q 83.84 36.81 84.65 37.10
  Q 85.17 37.30 85.02 37.83
  Q 84.58 39.39 82.81 39.32
  A 1.21 1.19 -71.2 0 0 81.77 39.84
  Q 80.94 41.06 79.47 41.47
  Q 78.84 41.65 77.06 41.32
  Q 75.90 41.10 74.56 41.24
  L 77.28 38.86
  Q 77.45 39.15 77.62 39.29
  Q 78.02 39.60 78.19 39.12
  Q 79.07 36.64 82.01 36.92
  Q 82.25 36.95 82.44 36.80
  Q 82.70 36.60 82.59 36.26
  Z"
/>
<path fill="#010207" d="
  M 46.54 41.28
  Q 47.13 42.11 48.07 41.83
  Q 48.52 41.70 48.86 42.03
  L 50.02 43.16
  Q 49.10 43.43 48.33 44.05
  Q 47.93 44.36 47.48 44.11
  Q 46.23 43.41 46.54 41.28
  Z"
/>
<path fill="#b2b1b9" fill-opacity="0.996" d="
  M 73.52 57.99
  Q 73.28 58.64 73.34 59.04
  Q 73.36 59.23 73.38 59.04
  Q 73.41 58.71 73.14 58.78
  C 73.49 56.12 68.79 54.95 66.95 55.03
  Q 63.71 55.17 60.52 53.85
  Q 58.76 53.13 57.00 53.11
  Q 51.54 53.06 47.91 48.59
  C 46.56 46.93 44.75 46.10 43.49 44.29
  Q 43.28 43.99 42.92 43.89
  Q 42.24 43.69 41.54 43.90
  Q 40.99 44.05 41.20 44.58
  Q 42.50 47.82 42.35 51.62
  Q 42.25 54.22 44.19 55.63
  Q 46.29 57.14 48.42 58.83
  C 49.80 59.92 51.74 60.51 52.86 62.26
  Q 52.11 64.86 54.83 64.07
  C 57.10 64.65 58.85 65.51 61.26 65.22
  Q 63.00 65.00 64.73 64.79
  Q 69.33 64.22 72.51 60.94
  Q 74.02 60.52 74.57 59.25
  Q 74.29 58.76 74.70 59.02
  Q 75.92 59.44 77.33 59.45
  Q 78.15 59.46 77.55 60.01
  Q 77.51 60.04 77.46 60.05
  Q 76.87 60.09 76.82 60.69
  Q 76.82 60.74 76.84 60.79
  Q 76.97 61.08 77.29 61.12
  Q 78.08 61.23 78.34 60.48
  A 0.94 0.92 1.6 0 1 78.98 59.89
  Q 80.60 59.46 81.75 58.17
  A 1.57 1.55 -71.4 0 1 82.80 57.64
  Q 83.78 57.56 84.61 57.09
  Q 85.46 56.60 85.18 55.83
  Q 85.01 55.36 84.52 55.27
  Q 83.66 55.10 83.64 54.45
  Q 84.15 53.87 85.03 53.76
  Q 85.61 53.68 85.77 54.25
  L 86.36 56.36
  A 0.87 0.87 0.0 0 1 85.91 57.37
  L 78.26 61.19
  A 1.80 1.70 30.7 0 1 77.42 61.38
  Q 74.61 61.31 72.30 62.78
  Q 63.49 68.39 53.34 64.82
  C 51.18 64.06 51.33 62.54 49.95 61.15
  L 46.38 59.27
  C 44.61 57.30 41.47 55.71 41.20 52.79
  Q 40.88 49.24 40.50 45.86
  Q 40.26 43.80 41.98 42.56
  Q 42.51 42.18 42.98 42.64
  Q 44.06 43.70 45.37 44.53
  C 46.64 45.34 48.09 45.15 48.91 46.66
  Q 50.91 50.33 55.11 51.87
  C 57.64 52.80 59.75 51.20 62.38 52.31
  C 65.49 53.63 72.79 53.95 73.52 57.99
  Z"
/>
<path fill="#010207" d="
  M 73.14 58.78
  L 72.51 60.94
  Q 69.33 64.22 64.73 64.79
  Q 63.00 65.00 61.26 65.22
  C 58.85 65.51 57.10 64.65 54.83 64.07
  Q 53.49 63.79 52.86 62.26
  C 51.74 60.51 49.80 59.92 48.42 58.83
  Q 46.29 57.14 44.19 55.63
  Q 42.25 54.22 42.35 51.62
  Q 42.50 47.82 41.20 44.58
  Q 40.99 44.05 41.54 43.90
  Q 42.24 43.69 42.92 43.89
  Q 43.28 43.99 43.49 44.29
  C 44.75 46.10 46.56 46.93 47.91 48.59
  Q 51.54 53.06 57.00 53.11
  Q 58.76 53.13 60.52 53.85
  Q 63.71 55.17 66.95 55.03
  C 68.79 54.95 73.49 56.12 73.14 58.78
  Z"
/>
<path fill="#b2b1b9" fill-opacity="0.996" d="
  M 82.69 54.13
  Q 83.02 54.41 82.84 54.84
  A 0.77 0.77 0.0 0 1 82.04 55.30
  Q 81.75 55.26 81.48 55.14
  Q 81.01 54.91 80.52 55.09
  L 78.10 55.99
  Q 79.80 52.50 82.69 54.13
  Z"
/>
<path fill="#6c687d" d="
  M 82.69 54.13
  L 83.64 54.45
  Q 83.66 55.10 84.52 55.27
  Q 85.01 55.36 85.18 55.83
  Q 85.46 56.60 84.61 57.09
  Q 83.78 57.56 82.80 57.64
  A 1.57 1.55 -71.4 0 0 81.75 58.17
  Q 80.60 59.46 78.98 59.89
  A 0.94 0.92 1.6 0 0 78.34 60.48
  Q 78.08 61.23 77.29 61.12
  Q 76.97 61.08 76.84 60.79
  Q 76.82 60.74 76.82 60.69
  Q 76.87 60.09 77.46 60.05
  Q 77.51 60.04 77.55 60.01
  Q 78.15 59.46 77.33 59.45
  Q 75.92 59.44 74.70 59.02
  L 78.10 55.99
  L 80.52 55.09
  Q 81.01 54.91 81.48 55.14
  Q 81.75 55.26 82.04 55.30
  A 0.77 0.77 0.0 0 0 82.84 54.84
  Q 83.02 54.41 82.69 54.13
  Z"
/>
<path fill="#6c687d" d="
  M 73.52 57.99
  Q 73.91 58.80 74.57 59.25
  Q 74.02 60.52 72.51 60.94
  L 73.14 58.78
  Q 73.41 58.71 73.38 59.04
  Q 73.36 59.23 73.34 59.04
  Q 73.28 58.64 73.52 57.99
  Z"
/>
<path fill="#010207" d="
  M 46.38 59.27
  L 49.95 61.15
  Q 47.99 63.25 47.08 61.29
  Q 46.64 60.33 46.38 59.27
  Z"
/>
<path fill="#b2b1b9" fill-opacity="0.996" d="
  M 73.10 76.07
  Q 69.93 74.26 64.24 73.91
  Q 63.15 73.84 60.05 72.76
  Q 58.17 72.10 56.32 72.05
  Q 53.98 71.98 52.32 70.86
  Q 47.81 67.79 43.38 63.11
  Q 42.61 62.30 40.98 62.76
  Q 41.19 61.98 41.69 61.58
  Q 42.08 61.28 42.49 61.54
  L 48.11 65.12
  Q 48.69 65.48 49.08 66.04
  C 51.67 69.81 54.74 71.33 59.06 70.90
  Q 61.09 70.69 63.16 71.56
  C 66.19 72.82 71.04 72.61 73.10 76.07
  Z"
/>
<path fill="#6c687d" d="
  M 52.86 62.26
  Q 53.49 63.79 54.83 64.07
  Q 52.11 64.86 52.86 62.26
  Z"
/>
<path fill="#010207" d="
  M 73.10 76.07
  Q 73.48 76.26 73.65 77.00
  Q 73.87 77.94 74.77 77.74
  Q 74.70 77.78 74.63 77.82
  Q 71.63 81.75 68.26 83.00
  Q 61.95 85.35 53.89 82.73
  Q 53.42 82.58 53.27 82.12
  Q 52.38 79.49 49.47 78.84
  A 1.34 1.30 76.4 0 1 48.70 78.35
  C 46.19 75.01 41.89 75.13 42.39 69.75
  Q 42.68 66.54 40.58 63.48
  Q 40.69 62.88 40.98 62.76
  Q 42.61 62.30 43.38 63.11
  Q 47.81 67.79 52.32 70.86
  Q 53.98 71.98 56.32 72.05
  Q 58.17 72.10 60.05 72.76
  Q 63.15 73.84 64.24 73.91
  Q 69.93 74.26 73.10 76.07
  Z"
/>
<path fill="#b2b1b9" fill-opacity="0.996" d="
  M 40.58 63.48
  Q 42.68 66.54 42.39 69.75
  C 41.89 75.13 46.19 75.01 48.70 78.35
  A 1.34 1.30 76.4 0 0 49.47 78.84
  Q 52.38 79.49 53.27 82.12
  Q 53.42 82.58 53.89 82.73
  Q 61.95 85.35 68.26 83.00
  Q 71.63 81.75 74.63 77.82
  Q 79.07 79.84 81.89 76.91
  Q 82.19 76.60 82.61 76.49
  L 84.52 76.02
  A 1.04 1.04 0.0 0 0 84.89 74.19
  L 83.97 73.49
  Q 84.48 72.74 85.21 72.59
  Q 85.83 72.45 85.84 73.09
  Q 85.85 74.00 86.27 74.84
  A 1.33 1.33 0.0 0 1 85.44 76.72
  C 84.27 77.06 83.05 77.34 82.06 78.08
  Q 79.50 80.00 76.74 80.41
  Q 73.77 80.85 71.49 82.26
  C 65.73 85.85 58.53 86.01 52.32 83.38
  Q 51.73 83.13 51.47 82.54
  L 50.74 80.89
  A 0.86 0.86 0.0 0 0 49.27 80.72
  Q 48.54 81.69 47.46 80.92
  Q 47.09 80.66 46.98 80.23
  L 46.64 78.91
  Q 46.46 78.20 45.89 77.74
  C 43.52 75.85 41.41 73.93 40.99 70.75
  Q 40.53 67.19 40.58 63.48
  Z"
/>
<path fill="#6c687d" d="
  M 83.97 73.49
  L 84.89 74.19
  A 1.04 1.04 0.0 0 1 84.52 76.02
  L 82.61 76.49
  Q 82.19 76.60 81.89 76.91
  Q 79.07 79.84 74.63 77.82
  Q 74.70 77.78 74.77 77.74
  L 79.69 72.97
  A 1.79 1.79 0.0 0 1 81.95 72.78
  Q 82.90 73.44 83.97 73.49
  Z"
/>
</svg>
