<?xml version="1.0" encoding="UTF-8" standalone="no"?>
<!DOCTYPE svg PUBLIC "-//W3C//DTD SVG 1.1//EN" "http://www.w3.org/Graphics/SVG/1.1/DTD/svg11.dtd">
<svg xmlns="http://www.w3.org/2000/svg" version="1.1" viewBox="0.00 0.00 128.00 128.00" width="128.00" height="128.00">
<path fill="#000000" d="
  M 95.54 94.27
  Q 90.57 89.30 85.68 85.03
  C 83.06 82.74 81.04 80.06 78.36 77.84
  C 77.28 76.94 77.13 75.74 76.04 74.91
  Q 75.65 74.61 75.49 74.15
  Q 74.94 72.55 73.32 71.76
  A 1.13 1.13 0.0 0 0 71.72 72.58
  Q 70.47 79.65 64.77 82.89
  Q 64.14 83.25 63.45 83.07
  Q 62.62 82.86 61.99 83.41
  Q 61.52 83.81 60.93 83.64
  C 58.50 82.92 56.12 83.63 53.84 82.39
  Q 52.02 81.40 50.11 80.39
  Q 48.43 79.51 47.24 78.06
  Q 45.08 75.43 42.63 72.71
  Q 41.34 71.28 38.97 70.13
  Q 33.28 67.35 30.93 61.49
  Q 30.38 60.10 30.48 58.34
  Q 30.56 57.04 31.16 55.99
  Q 33.39 52.09 35.94 49.78
  Q 37.23 48.62 37.68 46.68
  C 38.67 42.48 39.80 36.60 44.55 34.93
  C 45.92 34.45 47.12 33.56 48.50 33.20
  Q 52.00 32.29 56.46 32.98
  Q 61.27 33.72 66.61 31.97
  C 68.18 31.45 69.26 31.70 70.72 31.32
  Q 71.24 31.18 71.74 31.39
  C 76.09 33.22 81.12 36.53 81.51 41.45
  Q 81.83 45.48 81.87 49.61
  C 81.91 52.44 80.40 54.69 79.62 57.30
  Q 79.46 57.86 79.02 58.25
  Q 78.01 59.14 77.64 60.44
  Q 77.48 60.99 77.74 61.50
  Q 78.72 63.40 79.90 64.41
  Q 88.54 71.86 92.47 76.81
  Q 96.43 81.79 100.90 87.63
  Q 103.38 90.85 102.28 94.99
  A 1.45 1.44 0.6 0 1 101.21 96.03
  Q 99.87 96.34 98.66 97.19
  Q 98.22 97.50 97.85 97.10
  C 96.98 96.17 96.43 95.16 95.54 94.27
  Z
  M 44.66 42.82
  C 45.05 47.29 39.26 54.76 36.57 57.52
  A 1.56 1.54 67.0 0 0 36.13 58.63
  C 36.18 61.26 38.37 62.83 40.67 63.72
  Q 42.42 64.40 44.05 65.55
  Q 47.34 67.88 49.64 71.17
  Q 52.05 74.61 55.46 76.68
  A 2.19 2.11 -30.7 0 0 56.73 76.98
  Q 57.78 76.90 58.76 77.23
  C 61.59 78.19 66.05 75.14 66.44 72.21
  Q 67.28 65.93 69.96 59.07
  C 71.28 55.69 75.09 52.26 75.32 48.71
  Q 75.48 46.21 75.03 43.77
  Q 74.90 43.07 75.15 42.40
  Q 75.28 42.06 75.16 41.71
  Q 74.43 39.68 72.90 37.96
  C 70.71 35.47 66.22 36.02 63.78 37.45
  C 61.23 38.95 57.35 39.06 54.56 38.47
  Q 50.15 37.53 46.35 40.20
  C 45.40 40.87 44.54 41.43 44.66 42.82
  Z"
/>
</svg>
