<?xml version="1.0" encoding="UTF-8" standalone="no"?>
<!DOCTYPE svg PUBLIC "-//W3C//DTD SVG 1.1//EN" "http://www.w3.org/Graphics/SVG/1.1/DTD/svg11.dtd">
<svg xmlns="http://www.w3.org/2000/svg" version="1.1" viewBox="0.00 0.00 250.00 64.00">
<g stroke-width="2.00" fill="none" stroke-linecap="butt">
<path stroke="#34383c" stroke-opacity="0.980" vector-effect="non-scaling-stroke" d="
  M 212.71 29.84
  Q 213.40 27.69 212.25 25.22
  Q 211.40 23.39 209.92 22.71
  Q 205.92 20.89 201.98 19.84
  C 200.07 19.33 197.04 17.19 197.91 14.82
  A 3.30 2.95 13.8 0 1 201.44 12.95
  Q 202.30 13.08 203.07 12.70
  Q 203.73 12.38 203.03 12.18
  C 199.89 11.25 197.48 12.54 195.08 14.44
  C 193.85 15.41 193.65 16.48 193.69 17.95"
/>
<path stroke="#4e5155" stroke-opacity="0.992" vector-effect="non-scaling-stroke" d="
  M 207.29 33.84
  L 205.39 33.51"
/>
<path stroke="#34383c" stroke-opacity="0.980" vector-effect="non-scaling-stroke" d="
  M 205.53 26.69
  Q 204.54 25.54 203.35 25.44"
/>
<path stroke="#696b6e" stroke-opacity="0.996" vector-effect="non-scaling-stroke" d="
  M 193.69 17.95
  C 194.66 22.72 198.74 23.59 203.35 25.44"
/>
<path stroke="#696b6e" stroke-opacity="0.996" vector-effect="non-scaling-stroke" d="
  M 205.53 26.69
  L 208.28 28.03
  Q 208.75 28.26 208.89 28.76
  Q 209.94 32.57 205.39 33.51"
/>
<path stroke="#696b6e" stroke-opacity="0.996" vector-effect="non-scaling-stroke" d="
  M 199.53 33.64
  Q 199.46 33.42 199.38 33.21"
/>
<path stroke="#696b6e" stroke-opacity="0.996" vector-effect="non-scaling-stroke" d="
  M 198.93 33.11
  Q 197.37 33.29 197.38 31.50
  Q 197.38 29.98 197.53 28.55
  A 1.93 1.93 0.0 0 0 195.64 26.43
  Q 194.36 26.42 193.45 27.24
  A 2.30 2.30 0.0 0 0 193.11 30.27
  Q 195.22 33.26 199.06 34.07"
/>
<path stroke="#696b6e" stroke-opacity="0.996" vector-effect="non-scaling-stroke" d="
  M 207.29 33.84
  Q 210.58 32.99 212.71 29.84"
/>
<path stroke="#696b6e" stroke-opacity="0.996" vector-effect="non-scaling-stroke" d="
  M 217.43 31.35
  Q 214.14 34.67 211.00 36.01
  Q 202.87 39.48 197.18 43.10
  Q 192.61 46.02 186.48 47.95
  Q 185.86 48.14 185.90 48.80
  L 186.23 55.00"
/>
<path stroke="#696b6e" stroke-opacity="0.996" vector-effect="non-scaling-stroke" d="
  M 193.78 33.20
  L 193.05 33.24
  Q 192.50 33.28 192.31 32.76
  Q 190.96 29.19 191.14 24.79"
/>
<path stroke="#696b6e" stroke-opacity="0.996" vector-effect="non-scaling-stroke" d="
  M 191.08 21.44
  L 191.40 17.51
  A 0.86 0.86 0.0 0 0 190.14 16.68
  L 186.72 18.52
  A 1.41 1.41 0.0 0 1 185.89 18.68
  Q 185.21 18.59 184.57 18.21"
/>
<path stroke="#696b6e" stroke-opacity="0.996" vector-effect="non-scaling-stroke" d="
  M 186.54 11.66
  Q 186.15 12.65 186.02 13.56
  C 185.72 15.85 187.99 17.07 189.82 15.83
  Q 192.37 14.10 190.07 12.00"
/>
<path stroke="#696b6e" stroke-opacity="0.996" vector-effect="non-scaling-stroke" d="
  M 175.49 11.17
  Q 170.61 11.74 169.41 12.41
  Q 161.93 16.54 168.23 22.98"
/>
<path stroke="#565a5d" stroke-opacity="0.992" vector-effect="non-scaling-stroke" d="
  M 168.23 22.98
  Q 173.30 24.67 178.13 26.58
  C 179.26 27.03 179.71 27.77 180.47 28.61
  Q 180.83 29.01 180.76 29.54
  Q 180.38 32.17 178.34 33.09
  Q 174.42 34.84 170.02 32.79
  A 1.26 1.25 19.7 0 1 169.33 31.34
  L 169.97 28.78
  A 1.52 1.51 -57.9 0 0 169.67 27.44
  C 167.49 24.76 164.60 26.35 164.47 29.55"
/>
<path stroke="#565a5d" stroke-opacity="0.992" vector-effect="non-scaling-stroke" d="
  M 162.19 28.76
  L 155.94 14.84"
/>
<path stroke="#4e5155" stroke-opacity="0.992" vector-effect="non-scaling-stroke" d="
  M 217.26 31.51
  Q 217.34 31.43 217.43 31.35"
/>
<path stroke="#34383c" stroke-opacity="0.980" vector-effect="non-scaling-stroke" d="
  M 198.93 33.11
  Q 199.53 33.50 199.38 33.21"
/>
<path stroke="#34383c" stroke-opacity="0.980" vector-effect="non-scaling-stroke" d="
  M 199.53 33.64
  Q 199.37 33.93 199.06 34.07"
/>
<path stroke="#4e5155" stroke-opacity="0.992" vector-effect="non-scaling-stroke" d="
  M 190.07 12.00
  Q 188.34 11.00 186.54 11.66"
/>
<path stroke="#4e5155" stroke-opacity="0.992" vector-effect="non-scaling-stroke" d="
  M 184.57 18.21
  Q 184.40 18.30 184.23 18.34
  Q 183.95 18.41 184.18 18.59
  Q 184.98 19.18 185.37 20.39
  Q 187.30 26.32 185.32 32.00"
/>
<path stroke="#4e5155" stroke-opacity="0.992" vector-effect="non-scaling-stroke" d="
  M 185.06 34.27
  L 188.72 34.14"
/>
<path stroke="#4e5155" stroke-opacity="0.992" vector-effect="non-scaling-stroke" d="
  M 192.48 33.91
  Q 193.76 33.85 193.78 33.20"
/>
<path stroke="#4e5155" stroke-opacity="0.992" vector-effect="non-scaling-stroke" d="
  M 166.17 32.06
  Q 172.01 35.93 179.40 33.85
  Q 184.14 32.52 184.74 28.75
  C 185.30 25.23 182.70 22.65 179.65 21.67
  Q 176.27 20.59 172.67 19.37
  Q 169.36 18.24 169.76 14.95
  Q 169.83 14.38 170.26 14.01
  Q 172.17 12.34 174.76 12.34
  Q 176.29 12.35 178.44 13.20
  Q 179.08 13.45 178.92 14.11
  C 178.49 15.98 178.65 18.08 180.66 18.91
  C 182.85 19.81 184.41 17.50 183.87 15.72
  Q 183.17 13.37 179.98 12.49
  Q 177.70 11.87 175.49 11.17"
/>
<path stroke="#696b6e" stroke-opacity="0.996" vector-effect="non-scaling-stroke" d="
  M 166.17 32.06
  Q 165.08 31.22 164.47 29.55"
/>
<path stroke="#34383c" stroke-opacity="0.980" vector-effect="non-scaling-stroke" d="
  M 186.35 55.94
  Q 186.49 55.44 186.23 55.00"
/>
<path stroke="#4e5155" stroke-opacity="0.992" vector-effect="non-scaling-stroke" d="
  M 191.08 21.44
  L 191.14 24.79"
/>
<path stroke="#696b6e" stroke-opacity="0.996" vector-effect="non-scaling-stroke" d="
  M 192.48 33.91
  L 188.72 34.14"
/>
<path stroke="#696b6e" stroke-opacity="0.996" vector-effect="non-scaling-stroke" d="
  M 185.06 34.27
  Q 184.91 33.28 185.32 32.00"
/>
<path stroke="#696b6e" stroke-opacity="0.996" vector-effect="non-scaling-stroke" d="
  M 162.19 28.76
  L 165.11 32.98
  A 0.62 0.62 0.0 0 1 164.61 33.96
  L 158.16 34.05"
/>
<path stroke="#565a5d" stroke-opacity="0.992" vector-effect="non-scaling-stroke" d="
  M 158.16 34.05
  Q 156.93 33.73 156.77 30.23
  Q 156.66 27.84 156.08 26.37
  Q 154.86 23.28 153.02 20.47"
/>
<path stroke="#565a5d" stroke-opacity="0.992" vector-effect="non-scaling-stroke" d="
  M 151.78 24.59
  Q 151.72 25.77 154.09 25.30
  Q 154.15 25.29 154.14 25.35
  Q 154.12 25.47 154.17 25.61
  Q 154.18 25.64 154.14 25.64
  Q 152.67 25.56 151.32 25.96"
/>
<path stroke="#34383c" stroke-opacity="0.980" vector-effect="non-scaling-stroke" d="
  M 206.84 17.17
  A 1.90 1.88 -75.4 0 0 207.64 18.55
  C 210.38 20.48 213.36 16.04 211.18 14.22
  Q 209.38 12.74 207.18 12.43
  Q 206.42 12.32 206.92 12.91
  Q 207.37 13.44 207.53 14.09
  Q 207.65 14.55 207.39 14.94
  Q 206.73 15.97 206.84 17.17"
/>
</g>
<path fill="#696c6f" fill-opacity="0.961" d="
  M 183.42 3.32
  Q 184.06 4.76 187.23 4.60
  Q 187.85 4.57 188.41 4.84
  Q 190.97 6.11 194.33 5.53
  A 1.46 1.42 52.0 0 1 195.20 5.65
  C 196.48 6.31 197.70 6.89 199.25 6.66
  Q 200.21 6.51 201.49 7.05
  Q 205.06 8.55 208.83 7.81
  L 210.72 8.51
  Q 210.37 9.19 210.98 9.50
  Q 212.42 10.21 214.02 10.36
  Q 214.56 10.41 214.93 10.80
  L 218.96 14.94
  Q 219.30 15.29 219.29 15.77
  Q 219.26 16.65 220.08 16.93
  Q 220.80 17.18 220.43 17.85
  C 219.70 19.17 220.08 21.78 220.06 23.27
  Q 220.04 24.86 218.96 26.94
  Q 217.94 28.89 217.09 30.88
  Q 215.01 31.66 212.71 29.84
  Q 213.40 27.69 212.25 25.22
  Q 211.40 23.39 209.92 22.71
  Q 205.92 20.89 201.98 19.84
  C 200.07 19.33 197.04 17.19 197.91 14.82
  A 3.30 2.95 13.8 0 1 201.44 12.95
  Q 202.30 13.08 203.07 12.70
  Q 203.73 12.38 203.03 12.18
  C 199.89 11.25 197.48 12.54 195.08 14.44
  C 193.85 15.41 193.65 16.48 193.69 17.95
  Q 193.17 17.61 193.42 17.82
  L 192.84 12.48
  C 193.66 7.98 189.33 7.36 185.94 8.06
  Q 182.73 8.73 179.47 9.02
  C 176.62 9.28 175.01 10.42 171.85 10.09
  Q 168.91 9.79 165.95 10.07
  Q 164.96 9.81 163.81 10.05
  Q 166.34 4.24 172.51 3.20
  Q 177.52 2.35 183.42 3.32
  Z
  M 206.84 17.17
  A 1.90 1.88 -75.4 0 0 207.64 18.55
  C 210.38 20.48 213.36 16.04 211.18 14.22
  Q 209.38 12.74 207.18 12.43
  Q 206.42 12.32 206.92 12.91
  Q 207.37 13.44 207.53 14.09
  Q 207.65 14.55 207.39 14.94
  Q 206.73 15.97 206.84 17.17
  Z"
/>
<path fill="#9c9da0" fill-opacity="0.980" d="
  M 183.42 3.32
  L 208.83 7.81
  Q 205.06 8.55 201.49 7.05
  Q 200.21 6.51 199.25 6.66
  C 197.70 6.89 196.48 6.31 195.20 5.65
  A 1.46 1.42 52.0 0 0 194.33 5.53
  Q 190.97 6.11 188.41 4.84
  Q 187.85 4.57 187.23 4.60
  Q 184.06 4.76 183.42 3.32
  Z"
/>
<path fill="#d1d1d2" fill-opacity="0.988" d="
  M 192.84 12.48
  Q 193.01 14.34 192.38 16.50
  Q 192.15 17.28 193.42 17.82
  Q 193.17 17.61 193.69 17.95
  C 194.66 22.72 198.74 23.59 203.35 25.44
  Q 204.19 27.04 205.53 26.69
  L 208.28 28.03
  Q 208.75 28.26 208.89 28.76
  Q 209.94 32.57 205.39 33.51
  L 204.37 34.02
  Q 202.03 33.27 199.53 33.64
  Q 199.46 33.42 199.38 33.21
  L 201.37 31.07
  Q 201.86 30.54 201.23 30.20
  Q 200.87 30.00 200.91 29.58
  Q 201.00 28.75 201.82 28.88
  Q 203.08 29.08 203.32 30.35
  Q 203.42 30.89 202.96 31.17
  L 202.68 31.35
  Q 201.74 31.94 202.82 32.16
  Q 203.70 32.35 204.49 32.15
  A 0.51 0.51 0.0 0 0 204.68 31.26
  Q 203.84 30.59 203.89 29.56
  Q 203.91 29.05 203.42 28.87
  Q 202.38 28.49 201.84 27.57
  Q 201.41 26.86 201.21 27.67
  Q 201.04 28.35 200.57 28.83
  Q 200.14 29.26 200.21 29.87
  Q 200.38 31.66 198.93 33.11
  Q 197.37 33.29 197.38 31.50
  Q 197.38 29.98 197.53 28.55
  A 1.93 1.93 0.0 0 0 195.64 26.43
  Q 194.36 26.42 193.45 27.24
  A 2.30 2.30 0.0 0 0 193.11 30.27
  Q 195.22 33.26 199.06 34.07
  Q 199.85 34.15 200.50 34.51
  Q 202.31 35.41 203.82 35.00
  Q 205.56 34.53 204.40 35.90
  Q 204.07 36.29 203.53 36.56
  Q 203.06 36.81 202.77 36.36
  Q 202.57 36.03 202.19 35.91
  Q 201.70 35.76 201.31 36.06
  Q 200.58 36.62 200.15 37.48
  Q 199.83 38.10 200.51 37.96
  Q 200.99 37.86 201.29 37.48
  Q 201.64 37.05 202.19 36.99
  L 202.71 36.94
  Q 203.40 36.87 203.16 37.52
  Q 203.02 37.88 203.10 38.23
  Q 203.25 38.97 203.70 38.36
  L 205.70 35.59
  Q 205.87 35.36 205.74 35.10
  Q 205.67 34.97 205.46 34.96
  A 0.33 0.32 -89.1 0 1 205.14 34.62
  Q 205.17 34.05 205.59 33.93
  Q 205.77 33.88 205.97 33.93
  Q 206.68 34.10 207.29 33.84
  Q 210.58 32.99 212.71 29.84
  Q 215.01 31.66 217.09 30.88
  Q 217.26 31.12 217.43 31.35
  Q 214.14 34.67 211.00 36.01
  Q 202.87 39.48 197.18 43.10
  Q 192.61 46.02 186.48 47.95
  Q 185.86 48.14 185.90 48.80
  L 186.23 55.00
  Q 185.70 55.86 185.76 57.23
  C 185.80 58.13 185.56 58.95 186.27 59.82
  C 186.25 63.90 182.92 63.60 180.59 61.66
  Q 180.51 60.84 179.92 60.22
  Q 179.49 59.77 178.94 59.79
  Q 178.31 59.82 177.84 60.23
  L 174.06 58.89
  L 174.00 58.53
  Q 173.94 58.11 173.53 58.05
  Q 172.68 57.91 171.97 58.23
  L 169.95 57.72
  Q 170.74 56.61 172.39 56.87
  Q 172.90 56.95 173.09 56.47
  Q 173.17 56.30 173.17 56.12
  Q 173.18 55.60 172.67 55.44
  Q 171.34 55.03 170.27 54.24
  Q 172.26 53.61 175.15 56.34
  A 0.81 0.80 56.1 0 0 175.99 56.51
  Q 176.72 56.23 177.54 56.26
  Q 177.67 56.26 177.80 56.28
  Q 178.66 56.37 178.63 56.75
  Q 178.57 57.58 179.36 57.33
  Q 179.97 57.14 180.56 56.97
  Q 181.36 56.75 180.75 56.19
  L 179.70 55.25
  A 1.13 1.12 -23.1 0 0 178.97 54.96
  L 175.03 54.85
  Q 174.53 54.83 174.16 54.51
  Q 172.41 53.01 170.30 51.94
  Q 168.84 51.19 170.48 51.16
  Q 172.57 51.11 171.59 49.21
  Q 171.49 49.02 171.44 48.82
  Q 171.24 47.92 171.92 48.55
  Q 173.31 49.85 174.52 50.16
  Q 175.62 50.44 175.24 49.37
  Q 174.93 48.51 173.97 48.65
  A 0.99 0.97 -20.4 0 1 172.99 48.21
  Q 172.29 47.08 170.85 47.18
  Q 170.34 47.22 170.34 46.71
  L 170.35 46.32
  A 0.41 0.40 1.4 0 1 170.78 45.92
  L 173.04 46.05
  Q 173.61 46.08 173.96 46.52
  Q 174.41 47.11 175.18 47.18
  A 0.79 0.78 85.2 0 1 175.87 47.77
  Q 176.08 48.56 175.72 49.28
  A 1.18 1.18 0.0 0 0 175.70 50.29
  Q 176.30 51.64 177.53 51.06
  Q 178.61 50.55 177.60 49.92
  Q 176.62 49.31 177.12 48.24
  A 1.03 1.02 -62.7 0 1 178.54 47.78
  Q 180.13 48.66 181.22 49.63
  Q 182.40 50.68 182.33 49.11
  Q 182.25 47.47 183.48 47.02
  A 0.40 0.40 0.0 0 1 184.02 47.42
  Q 183.97 47.99 183.39 48.05
  Q 182.90 48.09 182.86 48.58
  Q 182.84 48.78 182.91 48.98
  Q 183.19 49.79 183.74 49.13
  L 184.77 47.90
  Q 185.02 47.59 184.82 47.25
  Q 183.84 45.56 182.52 45.82
  Q 182.14 45.89 181.99 45.53
  L 181.85 45.18
  Q 180.85 44.58 180.31 45.51
  Q 180.12 45.82 180.16 46.07
  Q 180.23 46.60 180.72 46.38
  L 181.72 45.93
  Q 182.29 46.39 182.14 47.29
  Q 182.04 47.88 181.44 47.97
  Q 178.46 48.42 179.08 45.40
  Q 179.09 45.35 179.15 45.33
  Q 180.77 44.88 179.31 44.06
  Q 179.03 43.91 178.87 43.63
  Q 178.61 43.17 179.11 43.02
  C 179.42 42.93 179.81 42.99 180.08 43.17
  Q 181.47 44.08 182.90 44.96
  Q 183.30 45.21 183.72 44.98
  Q 184.97 44.30 186.46 44.84
  Q 187.00 45.03 187.36 44.59
  Q 187.69 44.18 187.81 43.67
  Q 187.91 43.21 187.60 42.86
  L 186.18 41.24
  Q 185.82 40.83 186.19 40.44
  Q 186.49 40.13 186.88 40.01
  Q 187.46 39.83 187.27 39.26
  Q 186.92 38.21 187.92 37.59
  A 0.65 0.63 67.8 0 0 188.20 36.89
  Q 188.16 36.76 188.18 36.62
  Q 188.25 36.01 188.84 35.88
  Q 189.53 35.72 190.03 36.16
  Q 190.54 36.61 191.04 36.14
  Q 191.47 35.73 191.99 35.94
  Q 192.54 36.18 192.08 36.56
  Q 190.80 37.63 191.19 39.12
  Q 191.29 39.52 191.14 39.90
  Q 190.40 41.78 188.98 42.77
  Q 188.53 43.08 188.93 43.45
  Q 189.60 44.07 190.50 43.96
  Q 190.90 43.91 191.03 44.29
  Q 191.34 45.23 192.25 44.76
  Q 193.84 43.92 194.64 42.46
  Q 195.23 41.38 194.20 40.71
  Q 193.57 40.29 194.27 40.02
  L 195.67 39.46
  Q 196.35 39.20 196.41 39.92
  Q 196.48 40.81 196.24 41.71
  Q 195.64 43.95 197.05 42.11
  Q 198.07 40.80 198.02 39.30
  Q 198.00 38.75 198.54 38.64
  Q 199.00 38.54 199.38 38.84
  Q 199.85 39.23 199.63 39.76
  Q 199.37 40.40 200.05 40.30
  Q 200.40 40.25 200.72 39.98
  Q 201.78 39.64 201.71 38.95
  L 198.86 38.29
  A 0.49 0.49 0.0 0 1 198.56 37.55
  Q 199.73 35.74 199.65 35.31
  Q 199.57 34.88 199.25 34.91
  L 198.21 35.02
  Q 197.76 35.07 197.99 35.47
  Q 198.08 35.62 198.12 35.78
  Q 198.26 36.24 197.97 36.62
  L 196.12 39.06
  Q 195.91 39.35 195.59 39.17
  Q 195.46 39.10 195.38 38.97
  Q 195.06 38.52 195.50 38.19
  Q 196.02 37.78 196.25 37.17
  A 0.41 0.41 0.0 0 0 195.92 36.61
  Q 195.17 36.52 194.79 37.07
  Q 193.30 39.21 193.37 39.39
  Q 193.77 40.35 193.23 41.10
  Q 192.87 41.58 193.39 41.88
  L 193.64 42.02
  Q 194.14 42.30 193.78 42.75
  Q 192.92 43.84 191.72 44.04
  Q 191.19 44.13 190.96 43.63
  Q 190.55 42.73 191.24 42.00
  Q 191.61 41.62 191.76 41.11
  Q 192.28 39.25 192.81 37.54
  C 193.21 36.24 194.76 34.96 193.78 33.20
  L 193.05 33.24
  Q 192.50 33.28 192.31 32.76
  Q 190.96 29.19 191.14 24.79
  Q 192.65 24.45 193.22 23.73
  Q 193.66 23.18 194.25 23.56
  Q 194.74 23.88 195.28 23.22
  A 0.67 0.66 -61.1 0 0 194.98 22.16
  Q 193.77 21.77 192.97 20.88
  Q 192.50 20.36 192.14 20.96
  Q 191.59 21.85 191.08 21.44
  L 191.40 17.51
  A 0.86 0.86 0.0 0 0 190.14 16.68
  L 186.72 18.52
  A 1.41 1.41 0.0 0 1 185.89 18.68
  Q 185.21 18.59 184.57 18.21
  Q 184.47 17.98 184.23 17.77
  Q 183.86 17.44 183.89 16.95
  Q 184.13 12.99 186.54 11.66
  Q 186.15 12.65 186.02 13.56
  C 185.72 15.85 187.99 17.07 189.82 15.83
  Q 192.37 14.10 190.07 12.00
  Q 189.75 11.12 191.07 10.88
  Q 191.23 10.85 191.30 10.71
  Q 191.38 10.56 191.33 10.43
  Q 191.17 10.03 190.75 9.99
  Q 189.35 9.86 188.20 9.19
  Q 187.75 8.92 187.24 9.02
  L 184.03 9.59
  A 0.83 0.82 56.7 0 1 183.42 9.46
  Q 183.03 9.19 182.61 9.30
  C 181.84 9.51 181.60 10.25 180.93 10.66
  Q 180.47 10.94 180.08 10.58
  Q 179.48 10.03 178.75 10.24
  Q 177.08 10.70 175.49 11.17
  Q 170.61 11.74 169.41 12.41
  Q 161.93 16.54 168.23 22.98
  Q 167.61 24.76 166.03 24.75
  Q 165.53 24.74 165.12 25.04
  Q 164.53 25.47 163.80 25.68
  Q 163.11 25.88 163.54 25.30
  C 163.94 24.77 164.44 24.52 164.68 23.89
  Q 164.84 23.48 164.68 23.07
  A 0.53 0.53 0.0 0 0 163.86 22.84
  Q 163.56 23.08 163.18 23.02
  Q 162.35 22.89 162.83 22.19
  Q 163.58 21.10 163.14 20.08
  Q 163.00 19.75 162.99 19.39
  L 162.92 15.49
  Q 162.91 14.95 163.20 14.49
  L 165.95 10.07
  Q 168.91 9.79 171.85 10.09
  C 175.01 10.42 176.62 9.28 179.47 9.02
  Q 182.73 8.73 185.94 8.06
  C 189.33 7.36 193.66 7.98 192.84 12.48
  Z
  M 207.18 30.23
  L 206.29 31.58
  Q 206.08 31.89 206.42 32.06
  Q 206.81 32.25 207.18 31.93
  Q 208.15 31.11 207.90 30.33
  Q 207.65 29.52 207.18 30.23
  Z
  M 213.16 32.41
  Q 212.84 32.71 212.91 33.15
  Q 213.02 33.80 213.54 33.40
  L 214.42 32.73
  Q 215.16 32.17 214.24 32.07
  Q 213.58 32.00 213.16 32.41
  Z
  M 207.28 35.07
  Q 206.30 35.82 206.11 36.76
  Q 205.97 37.44 206.52 37.02
  L 208.34 35.65
  Q 210.10 35.74 211.61 34.26
  A 0.53 0.53 0.0 0 0 211.40 33.38
  Q 211.23 33.32 211.06 33.34
  Q 210.51 33.41 210.25 33.89
  Q 209.32 35.61 207.28 35.07
  Z"
/>
<path fill="#9c9da0" fill-opacity="0.980" d="
  M 210.72 8.51
  Q 213.42 9.22 215.80 10.67
  C 223.47 15.34 222.68 25.34 217.26 31.51
  Q 217.34 31.43 217.43 31.35
  Q 217.26 31.12 217.09 30.88
  Q 217.94 28.89 218.96 26.94
  Q 220.04 24.86 220.06 23.27
  C 220.08 21.78 219.70 19.17 220.43 17.85
  Q 220.80 17.18 220.08 16.93
  Q 219.26 16.65 219.29 15.77
  Q 219.30 15.29 218.96 14.94
  L 214.93 10.80
  Q 214.56 10.41 214.02 10.36
  Q 212.42 10.21 210.98 9.50
  Q 210.37 9.19 210.72 8.51
  Z"
/>
<path fill="#9c9da0" fill-opacity="0.980" d="
  M 190.07 12.00
  Q 188.34 11.00 186.54 11.66
  Q 184.13 12.99 183.89 16.95
  Q 183.86 17.44 184.23 17.77
  Q 184.47 17.98 184.57 18.21
  Q 184.40 18.30 184.23 18.34
  Q 183.95 18.41 184.18 18.59
  Q 184.98 19.18 185.37 20.39
  Q 187.30 26.32 185.32 32.00
  Q 185.45 31.74 185.27 31.54
  Q 184.94 31.16 184.58 31.51
  Q 183.78 32.29 183.62 33.38
  A 1.51 1.51 0.0 0 1 182.13 34.67
  Q 181.45 34.68 180.89 35.04
  Q 180.25 35.46 180.94 35.77
  Q 181.78 36.15 182.33 37.06
  Q 182.48 37.31 182.75 37.21
  L 183.40 36.98
  Q 183.74 36.86 183.53 36.56
  L 182.88 35.64
  Q 182.37 34.93 183.25 34.89
  Q 184.06 34.85 184.72 35.30
  A 0.42 0.42 0.0 0 0 185.37 35.02
  Q 185.44 34.65 185.06 34.27
  L 188.72 34.14
  Q 188.60 34.43 188.62 34.64
  A 0.44 0.44 0.0 0 0 189.19 35.04
  Q 190.81 34.55 191.87 35.24
  A 0.96 0.95 27.4 0 0 193.27 34.80
  Q 193.57 34.04 192.48 33.91
  Q 193.76 33.85 193.78 33.20
  C 194.76 34.96 193.21 36.24 192.81 37.54
  Q 192.28 39.25 191.76 41.11
  Q 191.61 41.62 191.24 42.00
  Q 190.55 42.73 190.96 43.63
  Q 191.19 44.13 191.72 44.04
  Q 192.92 43.84 193.78 42.75
  Q 194.14 42.30 193.64 42.02
  L 193.39 41.88
  Q 192.87 41.58 193.23 41.10
  Q 193.77 40.35 193.37 39.39
  Q 193.30 39.21 194.79 37.07
  Q 195.17 36.52 195.92 36.61
  A 0.41 0.41 0.0 0 1 196.25 37.17
  Q 196.02 37.78 195.50 38.19
  Q 195.06 38.52 195.38 38.97
  Q 195.46 39.10 195.59 39.17
  Q 195.91 39.35 196.12 39.06
  L 197.97 36.62
  Q 198.26 36.24 198.12 35.78
  Q 198.08 35.62 197.99 35.47
  Q 197.76 35.07 198.21 35.02
  L 199.25 34.91
  Q 199.57 34.88 199.65 35.31
  Q 199.73 35.74 198.56 37.55
  A 0.49 0.49 0.0 0 0 198.86 38.29
  L 201.71 38.95
  L 200.41 39.06
  Q 200.10 39.09 200.08 39.40
  Q 200.07 39.56 200.03 39.71
  Q 199.94 40.08 200.32 40.03
  L 200.72 39.98
  Q 200.40 40.25 200.05 40.30
  Q 199.37 40.40 199.63 39.76
  Q 199.85 39.23 199.38 38.84
  Q 199.00 38.54 198.54 38.64
  Q 198.00 38.75 198.02 39.30
  Q 198.07 40.80 197.05 42.11
  Q 195.64 43.95 196.24 41.71
  Q 196.48 40.81 196.41 39.92
  Q 196.35 39.20 195.67 39.46
  L 194.27 40.02
  Q 193.57 40.29 194.20 40.71
  Q 195.23 41.38 194.64 42.46
  Q 193.84 43.92 192.25 44.76
  Q 191.34 45.23 191.03 44.29
  Q 190.90 43.91 190.50 43.96
  Q 189.60 44.07 188.93 43.45
  Q 188.53 43.08 188.98 42.77
  Q 190.40 41.78 191.14 39.90
  Q 191.29 39.52 191.19 39.12
  Q 190.80 37.63 192.08 36.56
  Q 192.54 36.18 191.99 35.94
  Q 191.47 35.73 191.04 36.14
  Q 190.54 36.61 190.03 36.16
  Q 189.53 35.72 188.84 35.88
  Q 188.25 36.01 188.18 36.62
  Q 188.16 36.76 188.20 36.89
  A 0.65 0.63 67.8 0 1 187.92 37.59
  Q 186.92 38.21 187.27 39.26
  Q 187.46 39.83 186.88 40.01
  Q 186.49 40.13 186.19 40.44
  Q 185.82 40.83 186.18 41.24
  L 187.60 42.86
  Q 187.91 43.21 187.81 43.67
  Q 187.69 44.18 187.36 44.59
  Q 187.00 45.03 186.46 44.84
  Q 184.97 44.30 183.72 44.98
  Q 183.30 45.21 182.90 44.96
  Q 181.47 44.08 180.08 43.17
  C 179.81 42.99 179.42 42.93 179.11 43.02
  Q 178.61 43.17 178.87 43.63
  Q 179.03 43.91 179.31 44.06
  Q 180.77 44.88 179.15 45.33
  Q 179.09 45.35 179.08 45.40
  Q 178.46 48.42 181.44 47.97
  Q 182.04 47.88 182.14 47.29
  Q 182.29 46.39 181.72 45.93
  Q 181.70 45.62 181.85 45.18
  L 181.99 45.53
  Q 182.14 45.89 182.52 45.82
  Q 183.84 45.56 184.82 47.25
  Q 185.02 47.59 184.77 47.90
  L 183.74 49.13
  Q 183.19 49.79 182.91 48.98
  Q 182.84 48.78 182.86 48.58
  Q 182.90 48.09 183.39 48.05
  Q 183.97 47.99 184.02 47.42
  A 0.40 0.40 0.0 0 0 183.48 47.02
  Q 182.25 47.47 182.33 49.11
  Q 182.40 50.68 181.22 49.63
  Q 180.13 48.66 178.54 47.78
  A 1.03 1.02 -62.7 0 0 177.12 48.24
  Q 176.62 49.31 177.60 49.92
  Q 178.61 50.55 177.53 51.06
  Q 176.30 51.64 175.70 50.29
  A 1.18 1.18 0.0 0 1 175.72 49.28
  Q 176.08 48.56 175.87 47.77
  A 0.79 0.78 85.2 0 0 175.18 47.18
  Q 174.41 47.11 173.96 46.52
  Q 173.61 46.08 173.04 46.05
  L 170.78 45.92
  A 0.41 0.40 1.4 0 0 170.35 46.32
  L 170.34 46.71
  Q 170.34 47.22 170.85 47.18
  Q 172.29 47.08 172.99 48.21
  A 0.99 0.97 -20.4 0 0 173.97 48.65
  Q 174.93 48.51 175.24 49.37
  Q 175.62 50.44 174.52 50.16
  Q 173.31 49.85 171.92 48.55
  Q 171.24 47.92 171.44 48.82
  Q 171.49 49.02 171.59 49.21
  Q 172.57 51.11 170.48 51.16
  Q 168.84 51.19 170.30 51.94
  Q 172.41 53.01 174.16 54.51
  Q 174.53 54.83 175.03 54.85
  L 178.97 54.96
  A 1.13 1.12 -23.1 0 1 179.70 55.25
  L 180.75 56.19
  Q 181.36 56.75 180.56 56.97
  Q 179.97 57.14 179.36 57.33
  Q 178.57 57.58 178.63 56.75
  Q 178.66 56.37 177.80 56.28
  Q 177.67 56.26 177.54 56.26
  Q 176.72 56.23 175.99 56.51
  A 0.81 0.80 56.1 0 1 175.15 56.34
  Q 172.26 53.61 170.27 54.24
  L 165.01 49.35
  Q 164.62 48.98 164.72 48.46
  Q 165.06 46.66 162.80 45.46
  Q 161.90 44.98 162.31 45.91
  Q 162.45 46.23 162.59 46.54
  Q 162.97 47.45 162.02 47.19
  Q 160.63 46.81 159.69 47.76
  Q 159.59 47.86 159.45 47.88
  Q 159.28 47.91 159.14 47.82
  Q 158.62 47.49 159.12 47.12
  Q 160.65 45.98 159.32 44.63
  A 0.97 0.96 -33.8 0 1 159.64 43.06
  Q 160.81 42.57 160.96 44.62
  Q 163.45 42.75 162.95 39.52
  Q 162.81 38.61 163.49 39.23
  L 164.19 39.87
  A 0.44 0.43 24.8 0 0 164.91 39.61
  L 165.22 37.49
  Q 165.25 37.28 165.26 37.28
  L 165.57 37.20
  Q 165.81 37.13 165.88 37.37
  Q 166.43 39.12 165.70 40.39
  Q 165.39 40.93 166.02 40.91
  Q 166.58 40.89 166.73 40.36
  Q 166.90 39.80 167.46 39.97
  Q 168.70 40.34 169.18 41.48
  A 0.42 0.42 0.0 0 0 169.64 41.73
  Q 169.88 41.70 170.00 41.51
  Q 170.33 41.01 170.92 40.95
  Q 171.81 40.86 172.06 41.67
  A 0.69 0.67 -7.5 0 0 172.70 42.15
  Q 174.11 42.19 174.86 43.40
  Q 174.96 43.55 175.13 43.59
  Q 175.26 43.62 175.39 43.65
  Q 175.74 43.71 175.61 43.37
  Q 175.50 43.07 176.10 42.91
  A 0.55 0.55 0.0 0 1 176.75 43.25
  Q 177.03 44.03 177.78 43.98
  Q 178.38 43.93 178.19 43.37
  Q 177.73 42.02 176.17 41.83
  A 0.31 0.30 -82.5 0 1 175.91 41.48
  L 175.95 41.19
  Q 175.98 40.93 176.24 40.98
  L 179.24 41.57
  Q 179.73 41.66 180.10 42.00
  Q 181.46 43.21 183.08 42.78
  Q 183.53 42.66 183.88 42.96
  Q 184.50 43.49 185.20 43.95
  Q 186.32 44.69 187.09 43.73
  A 0.45 0.45 0.0 0 0 186.83 43.01
  Q 185.58 42.73 184.56 42.02
  Q 184.10 41.70 183.56 41.83
  Q 182.78 42.01 181.97 41.92
  A 1.26 1.25 76.5 0 1 181.08 41.37
  Q 180.11 39.92 178.50 40.09
  Q 177.99 40.14 177.61 39.80
  Q 175.22 37.65 172.50 38.47
  Q 171.85 38.67 171.76 38.00
  Q 171.72 37.72 171.53 37.49
  A 0.95 0.95 0.0 0 0 170.90 37.13
  Q 170.04 37.01 169.51 36.28
  A 0.73 0.72 -43.3 0 0 168.36 36.25
  Q 167.82 36.92 168.25 37.09
  Q 170.23 37.90 171.88 39.41
  Q 171.98 39.50 171.99 39.62
  Q 172.02 39.84 171.79 39.97
  A 0.29 0.28 -40.6 0 1 171.47 39.95
  Q 170.66 39.35 169.80 39.53
  Q 169.10 39.68 169.13 38.96
  Q 169.16 38.23 168.45 38.00
  A 0.39 0.39 0.0 0 0 167.95 38.40
  Q 167.97 38.64 167.77 38.76
  Q 166.34 39.65 166.90 38.04
  Q 167.23 37.10 166.36 36.77
  Q 165.83 36.56 165.99 36.02
  Q 166.56 34.16 166.17 32.06
  Q 172.01 35.93 179.40 33.85
  Q 184.14 32.52 184.74 28.75
  C 185.30 25.23 182.70 22.65 179.65 21.67
  Q 176.27 20.59 172.67 19.37
  Q 169.36 18.24 169.76 14.95
  Q 169.83 14.38 170.26 14.01
  Q 172.17 12.34 174.76 12.34
  Q 176.29 12.35 178.44 13.20
  Q 179.08 13.45 178.92 14.11
  C 178.49 15.98 178.65 18.08 180.66 18.91
  C 182.85 19.81 184.41 17.50 183.87 15.72
  Q 183.17 13.37 179.98 12.49
  Q 177.70 11.87 175.49 11.17
  Q 177.08 10.70 178.75 10.24
  Q 179.48 10.03 180.08 10.58
  Q 180.47 10.94 180.93 10.66
  C 181.60 10.25 181.84 9.51 182.61 9.30
  Q 183.03 9.19 183.42 9.46
  A 0.83 0.82 56.7 0 0 184.03 9.59
  L 187.24 9.02
  Q 187.75 8.92 188.20 9.19
  Q 189.35 9.86 190.75 9.99
  Q 191.17 10.03 191.33 10.43
  Q 191.38 10.56 191.30 10.71
  Q 191.23 10.85 191.07 10.88
  Q 189.75 11.12 190.07 12.00
  Z
  M 179.88 37.07
  Q 180.02 36.71 179.87 36.35
  Q 179.66 35.80 179.30 36.26
  Q 178.66 37.07 178.83 38.34
  Q 178.91 38.94 179.51 38.98
  L 180.53 39.04
  Q 181.23 39.09 180.82 38.53
  Q 180.57 38.19 180.22 38.00
  Q 179.66 37.68 179.88 37.07
  Z
  M 178.01 37.98
  Q 177.69 36.74 176.23 36.64
  Q 175.47 36.58 175.77 37.28
  Q 176.19 38.27 177.40 38.59
  Q 178.23 38.81 178.01 37.98
  Z
  M 185.36 39.47
  Q 185.66 39.19 185.81 38.80
  Q 185.99 38.34 185.61 38.02
  Q 185.40 37.85 185.17 37.66
  Q 183.72 36.45 184.26 38.26
  Q 184.57 39.27 184.00 40.13
  Q 183.33 41.15 184.54 41.08
  Q 185.13 41.05 185.04 40.39
  A 1.09 1.09 0.0 0 1 185.36 39.47
  Z
  M 182.01 38.53
  Q 181.02 39.64 182.05 40.49
  Q 182.56 40.91 182.86 40.31
  Q 183.21 39.59 182.92 38.72
  Q 182.63 37.84 182.01 38.53
  Z
  M 168.13 43.20
  Q 168.75 43.82 169.47 43.99
  Q 170.33 44.19 170.00 43.38
  Q 169.41 41.93 167.10 41.59
  Q 165.59 41.36 165.81 42.87
  Q 165.94 43.75 165.90 44.66
  Q 165.89 44.99 166.20 45.12
  Q 166.25 45.14 166.30 45.12
  Q 166.73 44.94 166.68 44.47
  Q 166.64 44.05 166.70 43.66
  A 0.85 0.84 -62.8 0 1 168.13 43.20
  Z
  M 171.08 44.36
  Q 171.57 44.71 172.16 44.88
  Q 173.17 45.17 172.88 44.17
  Q 172.65 43.37 171.92 43.00
  Q 171.51 42.78 171.13 43.06
  Q 170.75 43.34 170.78 43.82
  A 0.72 0.71 16.3 0 0 171.08 44.36
  Z
  M 176.13 45.59
  L 174.82 44.24
  A 0.60 0.59 -51.9 0 0 173.88 44.36
  Q 173.17 45.56 174.56 45.84
  Q 175.87 46.10 177.03 46.83
  Q 177.59 47.19 177.96 46.68
  Q 178.26 46.27 178.37 45.77
  A 0.62 0.62 0.0 0 0 177.84 45.02
  Q 177.14 44.94 176.76 45.53
  Q 176.49 45.96 176.13 45.59
  Z
  M 169.50 45.73
  A 0.15 0.15 0.0 0 0 169.52 45.53
  L 169.06 44.86
  Q 168.72 44.37 168.15 44.55
  Q 167.64 44.71 167.27 45.10
  Q 166.59 45.82 167.53 46.12
  Q 168.63 46.48 169.50 45.73
  Z
  M 168.12 47.79
  Q 168.19 47.21 167.79 46.84
  Q 167.17 46.26 166.96 47.08
  Q 166.65 48.30 166.88 49.27
  A 1.55 1.53 1.0 0 0 167.98 50.40
  Q 169.35 50.76 170.28 49.72
  Q 170.72 49.22 170.21 48.79
  Q 169.55 48.22 168.70 48.34
  Q 168.05 48.44 168.12 47.79
  Z"
/>
<path fill="#02070b" d="
  M 96.62 33.44
  Q 97.68 31.47 97.88 29.37
  Q 98.39 23.92 98.08 17.67
  C 97.99 15.80 97.44 14.07 96.71 12.36
  Q 96.36 11.53 97.26 11.52
  C 99.47 11.48 100.30 10.48 102.02 9.46
  Q 102.73 9.04 102.72 9.87
  Q 102.69 18.27 102.73 26.53
  C 102.74 28.82 103.16 31.22 104.16 33.30
  Q 104.50 34.00 103.72 34.00
  L 96.95 34.00
  A 0.38 0.38 0.0 0 1 96.62 33.44
  Z"
/>
<path fill="#acaeb0" fill-opacity="0.980" d="
  M 163.81 10.05
  Q 164.96 9.81 165.95 10.07
  L 163.20 14.49
  Q 162.91 14.95 162.92 15.49
  L 162.99 19.39
  Q 163.00 19.75 163.14 20.08
  Q 163.58 21.10 162.83 22.19
  Q 162.35 22.89 163.18 23.02
  Q 163.56 23.08 163.86 22.84
  A 0.53 0.53 0.0 0 1 164.68 23.07
  Q 164.84 23.48 164.68 23.89
  C 164.44 24.52 163.94 24.77 163.54 25.30
  Q 163.11 25.88 163.80 25.68
  Q 164.53 25.47 165.12 25.04
  Q 165.53 24.74 166.03 24.75
  Q 167.61 24.76 168.23 22.98
  Q 173.30 24.67 178.13 26.58
  C 179.26 27.03 179.71 27.77 180.47 28.61
  Q 180.83 29.01 180.76 29.54
  Q 180.38 32.17 178.34 33.09
  Q 174.42 34.84 170.02 32.79
  A 1.26 1.25 19.7 0 1 169.33 31.34
  L 169.97 28.78
  A 1.52 1.51 -57.9 0 0 169.67 27.44
  C 167.49 24.76 164.60 26.35 164.47 29.55
  Q 163.85 27.99 162.19 28.76
  L 155.94 14.84
  Q 159.29 11.23 163.81 10.05
  Z
  M 175.26 28.95
  Q 174.51 30.17 174.34 31.35
  Q 174.18 32.44 174.92 31.62
  Q 176.11 30.31 175.98 29.11
  Q 175.86 27.96 175.26 28.95
  Z"
/>
<path fill="#02070b" d="
  M 175.49 11.17
  Q 177.70 11.87 179.98 12.49
  Q 183.17 13.37 183.87 15.72
  C 184.41 17.50 182.85 19.81 180.66 18.91
  C 178.65 18.08 178.49 15.98 178.92 14.11
  Q 179.08 13.45 178.44 13.20
  Q 176.29 12.35 174.76 12.34
  Q 172.17 12.34 170.26 14.01
  Q 169.83 14.38 169.76 14.95
  Q 169.36 18.24 172.67 19.37
  Q 176.27 20.59 179.65 21.67
  C 182.70 22.65 185.30 25.23 184.74 28.75
  Q 184.14 32.52 179.40 33.85
  Q 172.01 35.93 166.17 32.06
  Q 165.08 31.22 164.47 29.55
  C 164.60 26.35 167.49 24.76 169.67 27.44
  A 1.52 1.51 -57.9 0 1 169.97 28.78
  L 169.33 31.34
  A 1.26 1.25 19.7 0 0 170.02 32.79
  Q 174.42 34.84 178.34 33.09
  Q 180.38 32.17 180.76 29.54
  Q 180.83 29.01 180.47 28.61
  C 179.71 27.77 179.26 27.03 178.13 26.58
  Q 173.30 24.67 168.23 22.98
  Q 161.93 16.54 169.41 12.41
  Q 170.61 11.74 175.49 11.17
  Z"
/>
<path fill="#02070b" d="
  M 190.07 12.00
  Q 192.37 14.10 189.82 15.83
  C 187.99 17.07 185.72 15.85 186.02 13.56
  Q 186.15 12.65 186.54 11.66
  Q 188.34 11.00 190.07 12.00
  Z"
/>
<path fill="#02070b" d="
  M 133.7407 34.6598
  A 11.59 11.31 89.7 0 1 122.3702 23.1292
  A 11.59 11.31 89.7 0 1 133.6193 11.4802
  A 11.59 11.31 89.7 0 1 144.9898 23.0108
  A 11.59 11.31 89.7 0 1 133.7407 34.6598
  Z
  M 133.6800 33.8000
  A 10.73 6.05 90.0 0 0 139.7300 23.0700
  A 10.73 6.05 90.0 0 0 133.6800 12.3400
  A 10.73 6.05 90.0 0 0 127.6300 23.0700
  A 10.73 6.05 90.0 0 0 133.6800 33.8000
  Z"
/>
<path fill="#02070b" d="
  M 212.71 29.84
  Q 210.58 32.99 207.29 33.84
  L 205.39 33.51
  Q 209.94 32.57 208.89 28.76
  Q 208.75 28.26 208.28 28.03
  L 205.53 26.69
  Q 204.54 25.54 203.35 25.44
  C 198.74 23.59 194.66 22.72 193.69 17.95
  C 193.65 16.48 193.85 15.41 195.08 14.44
  C 197.48 12.54 199.89 11.25 203.03 12.18
  Q 203.73 12.38 203.07 12.70
  Q 202.30 13.08 201.44 12.95
  A 3.30 2.95 13.8 0 0 197.91 14.82
  C 197.04 17.19 200.07 19.33 201.98 19.84
  Q 205.92 20.89 209.92 22.71
  Q 211.40 23.39 212.25 25.22
  Q 213.40 27.69 212.71 29.84
  Z"
/>
<path fill="#02070b" d="
  M 18.30 16.46
  Q 18.29 21.37 18.42 26.88
  Q 18.50 30.33 19.94 33.30
  Q 20.28 33.99 19.50 34.00
  L 16.25 34.00
  A 0.42 0.42 0.0 0 1 15.89 33.35
  Q 17.28 31.14 17.42 28.04
  Q 17.69 22.25 17.51 14.97
  Q 17.50 14.49 17.18 14.13
  L 16.03 12.87
  A 0.45 0.45 0.0 0 1 16.36 12.11
  L 24.31 12.11
  Q 24.95 12.10 25.05 12.74
  Q 25.80 17.65 29.23 21.84
  Q 29.57 22.26 29.92 21.85
  Q 33.47 17.62 34.15 13.21
  Q 34.32 12.11 35.43 12.11
  L 41.46 12.11
  Q 42.95 12.11 42.26 13.43
  Q 41.29 15.26 41.10 17.45
  C 40.68 22.41 40.24 28.80 42.48 33.26
  Q 42.85 34.00 42.02 34.00
  L 34.81 34.00
  Q 34.05 34.00 34.37 33.31
  C 36.71 28.34 36.12 21.90 35.93 16.44
  Q 35.88 15.06 35.08 16.18
  L 27.74 26.50
  A 0.81 0.81 0.0 0 1 26.40 26.47
  Q 22.91 21.07 19.02 16.21
  Q 18.31 15.33 18.30 16.46
  Z"
/>
<path fill="#02070b" d="
  M 84.79 22.72
  Q 87.21 22.23 88.88 20.51
  Q 90.13 19.21 90.13 21.02
  L 90.12 25.98
  A 0.34 0.34 0.0 0 1 89.54 26.22
  Q 87.57 24.27 85.15 23.60
  Q 84.04 23.29 83.97 24.44
  Q 83.66 29.24 85.57 33.41
  Q 85.84 33.99 85.19 33.99
  L 77.99 34.00
  Q 77.11 34.00 77.50 33.21
  C 79.57 28.95 79.25 22.65 78.92 18.20
  Q 78.70 15.23 77.39 12.70
  A 0.41 0.41 0.0 0 1 77.76 12.10
  L 94.55 12.11
  A 0.63 0.63 0.0 0 1 95.17 12.62
  L 96.09 17.40
  Q 96.41 19.09 95.25 17.82
  C 92.23 14.53 89.43 12.82 84.67 12.78
  Q 83.96 12.78 83.96 13.49
  L 83.96 22.05
  Q 83.96 22.89 84.79 22.72
  Z"
/>
<path fill="#02070b" d="
  M 155.94 14.84
  L 162.19 28.76
  L 165.11 32.98
  A 0.62 0.62 0.0 0 1 164.61 33.96
  L 158.16 34.05
  Q 156.93 33.73 156.77 30.23
  Q 156.66 27.84 156.08 26.37
  Q 154.86 23.28 153.02 20.47
  Q 152.60 18.26 150.78 16.23
  Q 150.23 15.63 150.30 16.43
  C 150.49 18.96 149.22 21.81 148.27 24.08
  Q 147.96 24.79 148.74 24.75
  L 151.78 24.59
  Q 151.72 25.77 154.09 25.30
  Q 154.15 25.29 154.14 25.35
  Q 154.12 25.47 154.17 25.61
  Q 154.18 25.64 154.14 25.64
  Q 152.67 25.56 151.32 25.96
  Q 150.06 25.11 148.21 25.59
  Q 147.73 25.72 147.53 26.17
  Q 145.92 29.78 146.38 33.49
  Q 146.45 34.00 145.93 34.00
  L 142.52 33.99
  A 0.36 0.36 0.0 0 1 142.24 33.40
  Q 145.36 29.43 147.45 24.15
  C 148.86 20.57 150.78 16.54 148.42 12.98
  Q 148.02 12.38 148.73 12.24
  Q 153.60 11.26 155.94 14.84
  Z"
/>
<path fill="#9c9da0" fill-opacity="0.980" d="
  M 192.84 12.48
  L 193.42 17.82
  Q 192.15 17.28 192.38 16.50
  Q 193.01 14.34 192.84 12.48
  Z"
/>
<path fill="#02070b" d="
  M 206.84 17.17
  Q 206.73 15.97 207.39 14.94
  Q 207.65 14.55 207.53 14.09
  Q 207.37 13.44 206.92 12.91
  Q 206.42 12.32 207.18 12.43
  Q 209.38 12.74 211.18 14.22
  C 213.36 16.04 210.38 20.48 207.64 18.55
  A 1.90 1.88 -75.4 0 1 206.84 17.17
  Z"
/>
<path fill="#02070b" d="
  M 54.25 32.10
  Q 51.18 35.93 45.61 33.90
  Q 43.78 33.23 43.12 31.40
  C 40.84 25.05 49.38 24.31 53.00 22.66
  A 2.41 2.41 0.0 0 0 54.31 19.78
  Q 53.23 16.16 49.16 17.30
  A 0.99 0.98 -23.6 0 0 48.58 18.76
  C 49.55 20.39 49.47 22.39 47.37 23.04
  A 2.23 2.23 0.0 0 1 44.55 21.47
  C 43.27 16.55 50.92 16.13 53.85 16.71
  C 58.16 17.55 59.48 21.09 59.35 25.04
  Q 59.21 29.40 60.73 32.90
  A 0.82 0.81 68.1 0 1 60.27 33.99
  Q 55.40 35.78 54.75 32.23
  Q 54.64 31.63 54.25 32.10
  Z
  M 47.96 28.30
  C 46.93 30.79 48.29 34.44 51.48 33.42
  C 55.79 32.04 54.88 26.32 54.72 22.67
  Q 54.69 22.14 54.27 22.47
  C 52.24 24.06 48.96 25.90 47.96 28.30
  Z"
/>
<path fill="#02070b" d="
  M 191.08 21.44
  L 191.14 24.79
  Q 190.96 29.19 192.31 32.76
  Q 192.50 33.28 193.05 33.24
  L 193.78 33.20
  Q 193.76 33.85 192.48 33.91
  L 188.72 34.14
  L 185.06 34.27
  Q 184.91 33.28 185.32 32.00
  Q 187.30 26.32 185.37 20.39
  Q 184.98 19.18 184.18 18.59
  Q 183.95 18.41 184.23 18.34
  Q 184.40 18.30 184.57 18.21
  Q 185.21 18.59 185.89 18.68
  A 1.41 1.41 0.0 0 0 186.72 18.52
  L 190.14 16.68
  A 0.86 0.86 0.0 0 1 191.40 17.51
  L 191.08 21.44
  Z"
/>
<path fill="#02070b" d="
  M 70.79 30.24
  C 72.46 26.14 74.30 21.79 73.74 17.61
  Q 73.65 17.00 74.27 17.00
  L 76.82 17.00
  Q 77.68 17.00 77.21 17.72
  Q 73.71 23.13 71.19 31.26
  Q 70.98 31.92 71.41 32.47
  L 71.96 33.18
  Q 72.58 33.98 71.57 33.99
  L 70.45 34.00
  A 0.65 0.65 0.0 0 0 69.83 34.49
  C 68.97 37.81 67.15 42.68 62.67 40.89
  C 61.33 40.35 60.57 39.02 60.68 37.58
  A 2.31 2.30 -5.1 0 1 62.42 35.51
  Q 63.85 35.14 64.97 36.16
  A 2.07 2.07 0.0 0 1 65.48 38.55
  L 64.87 39.91
  Q 64.58 40.57 65.30 40.54
  Q 65.85 40.52 66.21 40.13
  Q 68.22 38.01 69.13 34.60
  Q 69.28 34.05 68.72 33.91
  Q 66.10 33.27 65.11 30.43
  C 63.56 25.99 61.95 21.29 59.01 17.54
  A 0.33 0.33 0.0 0 1 59.27 17.00
  L 66.21 17.00
  Q 66.79 17.00 66.75 17.57
  Q 66.33 23.47 70.17 30.28
  Q 70.52 30.89 70.79 30.24
  Z"
/>
<path fill="#02070b" d="
  M 113.51 33.90
  Q 110.61 33.22 109.60 30.01
  Q 107.32 22.76 104.01 17.79
  Q 103.48 17.00 104.43 17.00
  L 110.81 17.00
  Q 111.42 17.00 111.40 17.61
  Q 111.13 23.74 114.78 30.27
  Q 115.04 30.73 115.29 30.26
  Q 118.62 23.98 118.57 17.61
  Q 118.57 17.00 119.18 17.00
  L 121.80 17.00
  A 0.40 0.40 0.0 0 1 122.12 17.65
  C 119.00 21.65 117.70 26.35 115.84 30.99
  A 1.06 1.04 -42.1 0 0 115.80 31.68
  Q 116.04 32.61 116.74 33.33
  Q 117.33 33.93 116.49 33.96
  L 115.40 34.00
  A 0.90 0.89 -82.1 0 0 114.58 34.63
  C 113.61 37.73 111.89 42.49 107.62 40.99
  Q 105.33 40.18 105.38 37.71
  C 105.45 33.87 112.68 35.05 109.43 40.07
  A 0.24 0.24 0.0 0 0 109.59 40.44
  L 109.98 40.50
  A 1.04 1.00 25.0 0 0 110.88 40.19
  Q 112.88 37.99 113.89 34.57
  Q 114.05 34.03 113.51 33.90
  Z"
/>
<path fill="#acaeb0" fill-opacity="0.980" d="
  M 153.02 20.47
  Q 154.86 23.28 156.08 26.37
  Q 156.66 27.84 156.77 30.23
  Q 156.93 33.73 158.16 34.05
  Q 160.03 35.41 161.22 35.48
  Q 161.93 35.53 161.59 36.16
  Q 160.99 37.26 161.03 38.78
  Q 161.05 39.26 161.27 39.69
  Q 161.99 41.07 160.96 44.62
  Q 160.81 42.57 159.64 43.06
  A 0.97 0.96 -33.8 0 0 159.32 44.63
  Q 160.65 45.98 159.12 47.12
  Q 158.62 47.49 159.14 47.82
  Q 159.28 47.91 159.45 47.88
  Q 159.59 47.86 159.69 47.76
  Q 160.63 46.81 162.02 47.19
  Q 162.97 47.45 162.59 46.54
  Q 162.45 46.23 162.31 45.91
  Q 161.90 44.98 162.80 45.46
  Q 165.06 46.66 164.72 48.46
  Q 164.62 48.98 165.01 49.35
  L 170.27 54.24
  Q 171.34 55.03 172.67 55.44
  Q 173.18 55.60 173.17 56.12
  Q 173.17 56.30 173.09 56.47
  Q 172.90 56.95 172.39 56.87
  Q 170.74 56.61 169.95 57.72
  Q 166.55 56.62 163.07 55.14
  Q 154.52 51.50 151.92 43.17
  Q 152.42 40.97 151.24 39.68
  Q 150.47 33.00 151.32 25.96
  Q 152.67 25.56 154.14 25.64
  Q 154.18 25.64 154.17 25.61
  Q 154.12 25.47 154.14 25.35
  Q 154.15 25.29 154.09 25.30
  Q 151.72 25.77 151.78 24.59
  Q 151.97 22.40 153.02 20.47
  Z"
/>
<path fill="#9c9da0" fill-opacity="0.980" d="
  M 191.14 24.79
  L 191.08 21.44
  Q 191.59 21.85 192.14 20.96
  Q 192.50 20.36 192.97 20.88
  Q 193.77 21.77 194.98 22.16
  A 0.67 0.66 -61.1 0 1 195.28 23.22
  Q 194.74 23.88 194.25 23.56
  Q 193.66 23.18 193.22 23.73
  Q 192.65 24.45 191.14 24.79
  Z"
/>
<path fill="#696c6f" fill-opacity="0.961" d="
  M 203.35 25.44
  Q 204.54 25.54 205.53 26.69
  Q 204.19 27.04 203.35 25.44
  Z"
/>
<path fill="#02070b" d="
  M 198.93 33.11
  Q 199.53 33.50 199.38 33.21
  Q 199.46 33.42 199.53 33.64
  Q 199.37 33.93 199.06 34.07
  Q 195.22 33.26 193.11 30.27
  A 2.30 2.30 0.0 0 1 193.45 27.24
  Q 194.36 26.42 195.64 26.43
  A 1.93 1.93 0.0 0 1 197.53 28.55
  Q 197.38 29.98 197.38 31.50
  Q 197.37 33.29 198.93 33.11
  Z"
/>
<path fill="#696c6f" fill-opacity="0.961" d="
  M 199.38 33.21
  Q 199.53 33.50 198.93 33.11
  Q 200.38 31.66 200.21 29.87
  Q 200.14 29.26 200.57 28.83
  Q 201.04 28.35 201.21 27.67
  Q 201.41 26.86 201.84 27.57
  Q 202.38 28.49 203.42 28.87
  Q 203.91 29.05 203.89 29.56
  Q 203.84 30.59 204.68 31.26
  A 0.51 0.51 0.0 0 1 204.49 32.15
  Q 203.70 32.35 202.82 32.16
  Q 201.74 31.94 202.68 31.35
  L 202.96 31.17
  Q 203.42 30.89 203.32 30.35
  Q 203.08 29.08 201.82 28.88
  Q 201.00 28.75 200.91 29.58
  Q 200.87 30.00 201.23 30.20
  Q 201.86 30.54 201.37 31.07
  L 199.38 33.21
  Z"
/>
<path fill="#d1d1d2" fill-opacity="0.988" d="
  M 164.47 29.55
  Q 165.08 31.22 166.17 32.06
  Q 166.56 34.16 165.99 36.02
  Q 165.83 36.56 166.36 36.77
  Q 167.23 37.10 166.90 38.04
  Q 166.34 39.65 167.77 38.76
  Q 167.97 38.64 167.95 38.40
  A 0.39 0.39 0.0 0 1 168.45 38.00
  Q 169.16 38.23 169.13 38.96
  Q 169.10 39.68 169.80 39.53
  Q 170.66 39.35 171.47 39.95
  A 0.29 0.28 -40.6 0 0 171.79 39.97
  Q 172.02 39.84 171.99 39.62
  Q 171.98 39.50 171.88 39.41
  Q 170.23 37.90 168.25 37.09
  Q 167.82 36.92 168.36 36.25
  A 0.73 0.72 -43.3 0 1 169.51 36.28
  Q 170.04 37.01 170.90 37.13
  A 0.95 0.95 0.0 0 1 171.53 37.49
  Q 171.72 37.72 171.76 38.00
  Q 171.85 38.67 172.50 38.47
  Q 175.22 37.65 177.61 39.80
  Q 177.99 40.14 178.50 40.09
  Q 180.11 39.92 181.08 41.37
  A 1.26 1.25 76.5 0 0 181.97 41.92
  Q 182.78 42.01 183.56 41.83
  Q 184.10 41.70 184.56 42.02
  Q 185.58 42.73 186.83 43.01
  A 0.45 0.45 0.0 0 1 187.09 43.73
  Q 186.32 44.69 185.20 43.95
  Q 184.50 43.49 183.88 42.96
  Q 183.53 42.66 183.08 42.78
  Q 181.46 43.21 180.10 42.00
  Q 179.73 41.66 179.24 41.57
  L 176.24 40.98
  Q 175.98 40.93 175.95 41.19
  L 175.91 41.48
  A 0.31 0.30 -82.5 0 0 176.17 41.83
  Q 177.73 42.02 178.19 43.37
  Q 178.38 43.93 177.78 43.98
  Q 177.03 44.03 176.75 43.25
  A 0.55 0.55 0.0 0 0 176.10 42.91
  Q 175.50 43.07 175.61 43.37
  Q 175.74 43.71 175.39 43.65
  Q 175.26 43.62 175.13 43.59
  Q 174.96 43.55 174.86 43.40
  Q 174.11 42.19 172.70 42.15
  A 0.69 0.67 -7.5 0 1 172.06 41.67
  Q 171.81 40.86 170.92 40.95
  Q 170.33 41.01 170.00 41.51
  Q 169.88 41.70 169.64 41.73
  A 0.42 0.42 0.0 0 1 169.18 41.48
  Q 168.70 40.34 167.46 39.97
  Q 166.90 39.80 166.73 40.36
  Q 166.58 40.89 166.02 40.91
  Q 165.39 40.93 165.70 40.39
  Q 166.43 39.12 165.88 37.37
  Q 165.81 37.13 165.57 37.20
  L 165.26 37.28
  Q 165.25 37.28 165.22 37.49
  L 164.91 39.61
  A 0.44 0.43 24.8 0 1 164.19 39.87
  L 163.49 39.23
  Q 162.81 38.61 162.95 39.52
  Q 163.45 42.75 160.96 44.62
  Q 161.99 41.07 161.27 39.69
  Q 161.05 39.26 161.03 38.78
  Q 160.99 37.26 161.59 36.16
  Q 161.93 35.53 161.22 35.48
  Q 160.03 35.41 158.16 34.05
  L 164.61 33.96
  A 0.62 0.62 0.0 0 0 165.11 32.98
  L 162.19 28.76
  Q 163.85 27.99 164.47 29.55
  Z
  M 173.74 40.88
  Q 174.11 41.21 174.56 41.26
  Q 175.20 41.33 174.96 40.73
  Q 174.54 39.65 173.81 39.39
  A 0.81 0.81 0.0 0 0 172.73 40.10
  Q 172.69 40.73 173.21 40.70
  Q 173.51 40.68 173.74 40.88
  Z"
/>
<path fill="#696c6f" fill-opacity="0.961" d="
  M 175.26 28.95
  Q 175.86 27.96 175.98 29.11
  Q 176.11 30.31 174.92 31.62
  Q 174.18 32.44 174.34 31.35
  Q 174.51 30.17 175.26 28.95
  Z"
/>
<path fill="#9c9da0" fill-opacity="0.980" d="
  M 207.18 30.23
  Q 207.65 29.52 207.90 30.33
  Q 208.15 31.11 207.18 31.93
  Q 206.81 32.25 206.42 32.06
  Q 206.08 31.89 206.29 31.58
  L 207.18 30.23
  Z"
/>
<path fill="#02070b" d="
  M 217.43 31.35
  Q 217.34 31.43 217.26 31.51
  Q 223.78 33.08 226.40 39.05
  C 229.36 45.81 227.45 53.62 219.68 55.83
  C 212.88 57.77 206.04 56.75 199.00 55.24
  Q 196.06 54.60 186.35 55.94
  Q 186.49 55.44 186.23 55.00
  L 185.90 48.80
  Q 185.86 48.14 186.48 47.95
  Q 192.61 46.02 197.18 43.10
  Q 202.87 39.48 211.00 36.01
  Q 214.14 34.67 217.43 31.35
  Z"
/>
<path fill="#d1d1d2" fill-opacity="0.988" d="
  M 185.32 32.00
  Q 184.91 33.28 185.06 34.27
  Q 185.44 34.65 185.37 35.02
  A 0.42 0.42 0.0 0 1 184.72 35.30
  Q 184.06 34.85 183.25 34.89
  Q 182.37 34.93 182.88 35.64
  L 183.53 36.56
  Q 183.74 36.86 183.40 36.98
  L 182.75 37.21
  Q 182.48 37.31 182.33 37.06
  Q 181.78 36.15 180.94 35.77
  Q 180.25 35.46 180.89 35.04
  Q 181.45 34.68 182.13 34.67
  A 1.51 1.51 0.0 0 0 183.62 33.38
  Q 183.78 32.29 184.58 31.51
  Q 184.94 31.16 185.27 31.54
  Q 185.45 31.74 185.32 32.00
  Z"
/>
<path fill="#9c9da0" fill-opacity="0.980" d="
  M 213.16 32.41
  Q 213.58 32.00 214.24 32.07
  Q 215.16 32.17 214.42 32.73
  L 213.54 33.40
  Q 213.02 33.80 212.91 33.15
  Q 212.84 32.71 213.16 32.41
  Z"
/>
<path fill="#696c6f" fill-opacity="0.961" d="
  M 199.53 33.64
  Q 202.03 33.27 204.37 34.02
  Q 204.68 33.98 204.83 34.13
  Q 205.04 34.35 204.75 34.44
  Q 202.91 35.08 200.50 34.51
  Q 199.85 34.15 199.06 34.07
  Q 199.37 33.93 199.53 33.64
  Z"
/>
<path fill="#9c9da0" fill-opacity="0.980" d="
  M 208.34 35.65
  Q 208.22 35.21 207.28 35.07
  Q 209.32 35.61 210.25 33.89
  Q 210.51 33.41 211.06 33.34
  Q 211.23 33.32 211.40 33.38
  A 0.53 0.53 0.0 0 1 211.61 34.26
  Q 210.10 35.74 208.34 35.65
  Z"
/>
<path fill="#9c9da0" fill-opacity="0.980" d="
  M 205.39 33.51
  L 207.29 33.84
  Q 206.68 34.10 205.97 33.93
  Q 205.77 33.88 205.59 33.93
  Q 205.17 34.05 205.14 34.62
  A 0.33 0.32 -89.1 0 0 205.46 34.96
  Q 205.67 34.97 205.74 35.10
  Q 205.87 35.36 205.70 35.59
  L 203.70 38.36
  Q 203.25 38.97 203.10 38.23
  Q 203.02 37.88 203.16 37.52
  Q 203.40 36.87 202.71 36.94
  L 202.19 36.99
  Q 201.64 37.05 201.29 37.48
  Q 200.99 37.86 200.51 37.96
  Q 199.83 38.10 200.15 37.48
  Q 200.58 36.62 201.31 36.06
  Q 201.70 35.76 202.19 35.91
  Q 202.57 36.03 202.77 36.36
  Q 203.06 36.81 203.53 36.56
  Q 204.07 36.29 204.40 35.90
  Q 205.56 34.53 203.82 35.00
  Q 202.31 35.41 200.50 34.51
  Q 202.91 35.08 204.75 34.44
  Q 205.04 34.35 204.83 34.13
  Q 204.68 33.98 204.37 34.02
  L 205.39 33.51
  Z"
/>
<path fill="#d1d1d2" fill-opacity="0.988" d="
  M 192.48 33.91
  Q 193.57 34.04 193.27 34.80
  A 0.96 0.95 27.4 0 1 191.87 35.24
  Q 190.81 34.55 189.19 35.04
  A 0.44 0.44 0.0 0 1 188.62 34.64
  Q 188.60 34.43 188.72 34.14
  L 192.48 33.91
  Z"
/>
<path fill="#696c6f" fill-opacity="0.961" d="
  M 207.28 35.07
  Q 208.22 35.21 208.34 35.65
  L 206.52 37.02
  Q 205.97 37.44 206.11 36.76
  Q 206.30 35.82 207.28 35.07
  Z"
/>
<path fill="#d1d1d2" fill-opacity="0.988" d="
  M 180.22 38.00
  Q 180.57 38.19 180.82 38.53
  Q 181.23 39.09 180.53 39.04
  L 179.51 38.98
  Q 178.91 38.94 178.83 38.34
  Q 178.66 37.07 179.30 36.26
  Q 179.66 35.80 179.87 36.35
  Q 180.02 36.71 179.88 37.07
  Q 179.66 37.68 180.22 38.00
  Z"
/>
<path fill="#d1d1d2" fill-opacity="0.988" d="
  M 178.01 37.98
  Q 178.23 38.81 177.40 38.59
  Q 176.19 38.27 175.77 37.28
  Q 175.47 36.58 176.23 36.64
  Q 177.69 36.74 178.01 37.98
  Z"
/>
<path fill="#d1d1d2" fill-opacity="0.988" d="
  M 185.04 40.39
  Q 185.13 41.05 184.54 41.08
  Q 183.33 41.15 184.00 40.13
  Q 184.57 39.27 184.26 38.26
  Q 183.72 36.45 185.17 37.66
  Q 185.40 37.85 185.61 38.02
  Q 185.99 38.34 185.81 38.80
  Q 185.66 39.19 185.36 39.47
  A 1.09 1.09 0.0 0 0 185.04 40.39
  Z"
/>
<path fill="#d1d1d2" fill-opacity="0.988" d="
  M 182.01 38.53
  Q 182.63 37.84 182.92 38.72
  Q 183.21 39.59 182.86 40.31
  Q 182.56 40.91 182.05 40.49
  Q 181.02 39.64 182.01 38.53
  Z"
/>
<path fill="#696c6f" fill-opacity="0.961" d="
  M 201.71 38.95
  Q 201.78 39.64 200.72 39.98
  L 200.32 40.03
  Q 199.94 40.08 200.03 39.71
  Q 200.07 39.56 200.08 39.40
  Q 200.10 39.09 200.41 39.06
  L 201.71 38.95
  Z"
/>
<path fill="#696c6f" fill-opacity="0.961" d="
  M 173.21 40.70
  Q 172.69 40.73 172.73 40.10
  A 0.81 0.81 0.0 0 1 173.81 39.39
  Q 174.54 39.65 174.96 40.73
  Q 175.20 41.33 174.56 41.26
  Q 174.11 41.21 173.74 40.88
  Q 173.51 40.68 173.21 40.70
  Z"
/>
<path fill="#696c6f" fill-opacity="0.961" d="
  M 151.24 39.68
  Q 152.42 40.97 151.92 43.17
  Q 151.19 41.42 151.24 39.68
  Z"
/>
<path fill="#d1d1d2" fill-opacity="0.988" d="
  M 168.13 43.20
  A 0.85 0.84 -62.8 0 0 166.70 43.66
  Q 166.64 44.05 166.68 44.47
  Q 166.73 44.94 166.30 45.12
  Q 166.25 45.14 166.20 45.12
  Q 165.89 44.99 165.90 44.66
  Q 165.94 43.75 165.81 42.87
  Q 165.59 41.36 167.10 41.59
  Q 169.41 41.93 170.00 43.38
  Q 170.33 44.19 169.47 43.99
  Q 168.75 43.82 168.13 43.20
  Z"
/>
<path fill="#d1d1d2" fill-opacity="0.988" d="
  M 171.08 44.36
  A 0.72 0.71 16.3 0 1 170.78 43.82
  Q 170.75 43.34 171.13 43.06
  Q 171.51 42.78 171.92 43.00
  Q 172.65 43.37 172.88 44.17
  Q 173.17 45.17 172.16 44.88
  Q 171.57 44.71 171.08 44.36
  Z"
/>
<path fill="#d1d1d2" fill-opacity="0.988" d="
  M 176.76 45.53
  Q 177.14 44.94 177.84 45.02
  A 0.62 0.62 0.0 0 1 178.37 45.77
  Q 178.26 46.27 177.96 46.68
  Q 177.59 47.19 177.03 46.83
  Q 175.87 46.10 174.56 45.84
  Q 173.17 45.56 173.88 44.36
  A 0.60 0.59 -51.9 0 1 174.82 44.24
  L 176.13 45.59
  Q 176.49 45.96 176.76 45.53
  Z"
/>
<path fill="#d1d1d2" fill-opacity="0.988" d="
  M 169.50 45.73
  Q 168.63 46.48 167.53 46.12
  Q 166.59 45.82 167.27 45.10
  Q 167.64 44.71 168.15 44.55
  Q 168.72 44.37 169.06 44.86
  L 169.52 45.53
  A 0.15 0.15 0.0 0 1 169.50 45.73
  Z"
/>
<path fill="#696c6f" fill-opacity="0.961" d="
  M 181.85 45.18
  Q 181.70 45.62 181.72 45.93
  L 180.72 46.38
  Q 180.23 46.60 180.16 46.07
  Q 180.12 45.82 180.31 45.51
  Q 180.85 44.58 181.85 45.18
  Z"
/>
<path fill="#d1d1d2" fill-opacity="0.988" d="
  M 168.70 48.34
  Q 169.55 48.22 170.21 48.79
  Q 170.72 49.22 170.28 49.72
  Q 169.35 50.76 167.98 50.40
  A 1.55 1.53 1.0 0 1 166.88 49.27
  Q 166.65 48.30 166.96 47.08
  Q 167.17 46.26 167.79 46.84
  Q 168.19 47.21 168.12 47.79
  Q 168.05 48.44 168.70 48.34
  Z"
/>
<path fill="#696c6f" fill-opacity="0.961" d="
  M 186.23 55.00
  Q 186.49 55.44 186.35 55.94
  Q 186.63 57.85 186.27 59.82
  C 185.56 58.95 185.80 58.13 185.76 57.23
  Q 185.70 55.86 186.23 55.00
  Z"
/>
<path fill="#696c6f" fill-opacity="0.961" d="
  M 174.06 58.89
  Q 172.77 58.88 171.97 58.23
  Q 172.68 57.91 173.53 58.05
  Q 173.94 58.11 174.00 58.53
  L 174.06 58.89
  Z"
/>
<path fill="#696c6f" fill-opacity="0.961" d="
  M 180.59 61.66
  L 177.84 60.23
  Q 178.31 59.82 178.94 59.79
  Q 179.49 59.77 179.92 60.22
  Q 180.51 60.84 180.59 61.66
  Z"
/>
</svg>
