<?xml version="1.0" encoding="UTF-8" standalone="no"?>
<!DOCTYPE svg PUBLIC "-//W3C//DTD SVG 1.1//EN" "http://www.w3.org/Graphics/SVG/1.1/DTD/svg11.dtd">
<svg xmlns="http://www.w3.org/2000/svg" version="1.1" viewBox="0.00 0.00 1139.00 38.00" width="1139.00" height="38.00">
<g stroke-width="1.50" fill="none" stroke-linecap="butt">
<path stroke="#2f3030" vector-effect="non-scaling-stroke" d="
  M 126.54 19.16
  Q 126.55 19.31 126.56 19.46"
/>
<path stroke="#8f8f8f" vector-effect="non-scaling-stroke" d="
  M 126.56 19.46
  Q 125.57 18.08 123.72 18.22"
/>
<path stroke="#2f3030" vector-effect="non-scaling-stroke" d="
  M 123.72 18.22
  Q 125.58 16.90 123.54 14.94
  C 121.75 13.21 118.75 12.56 116.43 11.73
  A 1.89 1.88 -48.7 0 1 116.21 8.28
  Q 118.11 7.31 119.88 7.19
  Q 120.76 7.13 119.96 6.77
  Q 118.34 6.05 117.30 7.27
  A 1.13 1.12 -71.2 0 1 116.52 7.66
  Q 113.76 7.86 112.54 10.22"
/>
<path stroke="#8f8f8f" vector-effect="non-scaling-stroke" d="
  M 112.54 10.22
  Q 113.03 7.39 111.64 6.08
  Q 110.64 5.14 108.14 5.39
  Q 101.23 6.08 94.76 6.75"
/>
<path stroke="#606060" vector-effect="non-scaling-stroke" d="
  M 112.54 10.22
  C 112.82 12.23 113.98 13.94 115.96 14.56
  Q 118.83 15.45 121.49 17.37
  Q 121.91 17.68 121.77 18.19
  Q 121.52 19.03 121.00 19.75
  Q 120.48 20.47 121.36 20.32
  Q 122.82 20.08 123.72 18.22"
/>
<path stroke="#606060" vector-effect="non-scaling-stroke" d="
  M 126.56 19.46
  L 108.61 28.83
  Q 108.11 29.09 108.15 29.65
  L 108.45 33.44"
/>
<path stroke="#606060" vector-effect="non-scaling-stroke" d="
  M 88.04 16.23
  Q 88.99 15.41 88.63 13.50"
/>
<path stroke="#606060" vector-effect="non-scaling-stroke" d="
  M 89.03 12.70
  Q 91.29 16.19 91.22 19.92
  Q 91.21 20.52 91.81 20.52
  L 95.45 20.50
  Q 96.26 20.49 95.91 19.76
  L 90.85 9.33"
/>
<path stroke="#2f3030" vector-effect="non-scaling-stroke" d="
  M 121.27 11.55
  L 122.21 11.79
  Q 123.20 12.05 123.24 11.03
  Q 123.31 9.45 122.51 8.04
  Q 122.32 7.70 121.94 7.61
  Q 121.75 7.56 121.56 7.52
  Q 120.76 7.35 120.85 8.17
  Q 120.96 9.23 120.58 10.16
  Q 120.12 11.25 121.27 11.55"
/>
<path stroke="#606060" vector-effect="non-scaling-stroke" d="
  M 111.11 8.56
  A 1.50 1.50 0.0 0 0 109.61 7.06
  A 1.50 1.50 0.0 0 0 108.11 8.56
  A 1.50 1.50 0.0 0 0 109.61 10.06
  A 1.50 1.50 0.0 0 0 111.11 8.56"
/>
<path stroke="#606060" vector-effect="non-scaling-stroke" d="
  M 103.53 7.77
  Q 104.50 8.92 104.19 10.38
  A 0.89 0.89 0.0 0 0 104.74 11.39
  Q 105.80 11.79 106.71 11.13
  Q 107.31 10.70 107.05 10.01
  Q 106.17 7.70 103.72 7.41
  A 0.22 0.22 0.0 0 0 103.53 7.77"
/>
<path stroke="#606060" vector-effect="non-scaling-stroke" d="
  M 102.90 20.31
  Q 101.75 20.01 100.56 20.05
  C 99.34 20.09 98.03 19.15 98.63 17.79
  A 1.35 1.35 0.0 0 0 97.05 15.93
  Q 95.49 16.35 95.95 17.83
  C 96.93 20.99 101.26 20.75 104.06 20.43
  C 107.85 20.01 108.93 14.98 104.94 13.53
  Q 102.51 12.66 100.00 11.69
  C 98.67 11.18 97.91 9.74 99.12 8.66
  Q 99.43 8.39 99.70 8.07
  Q 100.23 7.45 99.43 7.60
  C 94.69 8.53 95.84 13.73 99.76 14.65
  Q 102.38 15.27 104.72 16.59
  Q 105.22 16.87 105.24 17.43
  Q 105.30 19.32 103.54 20.24
  Q 103.23 20.40 102.90 20.31"
/>
<path stroke="#606060" vector-effect="non-scaling-stroke" d="
  M 107.58 12.32
  Q 109.73 15.89 107.81 19.83
  Q 107.48 20.50 108.23 20.50
  L 111.75 20.49
  Q 112.46 20.49 112.12 19.87
  L 111.50 18.71
  Q 111.24 18.24 111.25 17.70
  L 111.33 10.51
  A 0.33 0.33 0.0 0 0 110.77 10.27
  Q 109.55 11.46 107.94 11.62
  Q 107.20 11.69 107.58 12.32"
/>
<path stroke="#606060" vector-effect="non-scaling-stroke" d="
  M 112.42 17.74
  Q 113.06 19.75 114.99 20.27
  Q 115.84 20.50 115.36 19.77
  Q 114.74 18.80 115.17 17.76
  Q 115.38 17.25 115.16 16.74
  Q 114.62 15.55 113.46 15.85
  A 1.49 1.48 -16.3 0 0 112.42 17.74"
/>
</g>
<path fill="#5e5f5f" d="
  M 126.54 19.16
  Q 126.55 19.31 126.56 19.46
  Q 125.57 18.08 123.72 18.22
  Q 125.58 16.90 123.54 14.94
  C 121.75 13.21 118.75 12.56 116.43 11.73
  A 1.89 1.88 -48.7 0 1 116.21 8.28
  Q 118.11 7.31 119.88 7.19
  Q 120.76 7.13 119.96 6.77
  Q 118.34 6.05 117.30 7.27
  A 1.13 1.12 -71.2 0 1 116.52 7.66
  Q 113.76 7.86 112.54 10.22
  Q 113.03 7.39 111.64 6.08
  Q 110.64 5.14 108.14 5.39
  Q 101.23 6.08 94.76 6.75
  Q 97.83 1.69 103.99 2.26
  Q 111.77 2.97 118.80 4.50
  Q 124.94 5.84 127.20 8.10
  Q 131.35 12.24 126.54 19.16
  Z
  M 121.27 11.55
  L 122.21 11.79
  Q 123.20 12.05 123.24 11.03
  Q 123.31 9.45 122.51 8.04
  Q 122.32 7.70 121.94 7.61
  Q 121.75 7.56 121.56 7.52
  Q 120.76 7.35 120.85 8.17
  Q 120.96 9.23 120.58 10.16
  Q 120.12 11.25 121.27 11.55
  Z"
/>
<path fill="#bfbfbf" d="
  M 112.54 10.22
  C 112.82 12.23 113.98 13.94 115.96 14.56
  Q 118.83 15.45 121.49 17.37
  Q 121.91 17.68 121.77 18.19
  Q 121.52 19.03 121.00 19.75
  Q 120.48 20.47 121.36 20.32
  Q 122.82 20.08 123.72 18.22
  Q 125.57 18.08 126.56 19.46
  L 108.61 28.83
  Q 108.11 29.09 108.15 29.65
  L 108.45 33.44
  L 108.38 36.21
  A 0.80 0.80 0.0 0 1 107.65 36.98
  C 105.30 37.17 104.28 35.96 102.29 35.40
  Q 98.88 34.44 95.54 33.13
  C 88.05 30.18 86.89 23.38 88.04 16.23
  Q 88.99 15.41 88.63 13.50
  Q 88.89 13.14 89.03 12.70
  Q 91.29 16.19 91.22 19.92
  Q 91.21 20.52 91.81 20.52
  L 95.45 20.50
  Q 96.26 20.49 95.91 19.76
  L 90.85 9.33
  Q 92.41 7.33 94.76 6.75
  Q 101.23 6.08 108.14 5.39
  Q 110.64 5.14 111.64 6.08
  Q 113.03 7.39 112.54 10.22
  Z
  M 111.11 8.56
  A 1.50 1.50 0.0 0 0 109.61 7.06
  A 1.50 1.50 0.0 0 0 108.11 8.56
  A 1.50 1.50 0.0 0 0 109.61 10.06
  A 1.50 1.50 0.0 0 0 111.11 8.56
  Z
  M 103.53 7.77
  Q 104.50 8.92 104.19 10.38
  A 0.89 0.89 0.0 0 0 104.74 11.39
  Q 105.80 11.79 106.71 11.13
  Q 107.31 10.70 107.05 10.01
  Q 106.17 7.70 103.72 7.41
  A 0.22 0.22 0.0 0 0 103.53 7.77
  Z
  M 102.90 20.31
  Q 101.75 20.01 100.56 20.05
  C 99.34 20.09 98.03 19.15 98.63 17.79
  A 1.35 1.35 0.0 0 0 97.05 15.93
  Q 95.49 16.35 95.95 17.83
  C 96.93 20.99 101.26 20.75 104.06 20.43
  C 107.85 20.01 108.93 14.98 104.94 13.53
  Q 102.51 12.66 100.00 11.69
  C 98.67 11.18 97.91 9.74 99.12 8.66
  Q 99.43 8.39 99.70 8.07
  Q 100.23 7.45 99.43 7.60
  C 94.69 8.53 95.84 13.73 99.76 14.65
  Q 102.38 15.27 104.72 16.59
  Q 105.22 16.87 105.24 17.43
  Q 105.30 19.32 103.54 20.24
  Q 103.23 20.40 102.90 20.31
  Z
  M 107.58 12.32
  Q 109.73 15.89 107.81 19.83
  Q 107.48 20.50 108.23 20.50
  L 111.75 20.49
  Q 112.46 20.49 112.12 19.87
  L 111.50 18.71
  Q 111.24 18.24 111.25 17.70
  L 111.33 10.51
  A 0.33 0.33 0.0 0 0 110.77 10.27
  Q 109.55 11.46 107.94 11.62
  Q 107.20 11.69 107.58 12.32
  Z
  M 112.42 17.74
  Q 113.06 19.75 114.99 20.27
  Q 115.84 20.50 115.36 19.77
  Q 114.74 18.80 115.17 17.76
  Q 115.38 17.25 115.16 16.74
  Q 114.62 15.55 113.46 15.85
  A 1.49 1.48 -16.3 0 0 112.42 17.74
  Z"
/>
<path fill="#000000" d="
  M 56.57 7.19
  C 57.41 7.24 58.09 6.65 58.73 6.22
  Q 59.48 5.71 59.43 6.61
  Q 59.12 12.08 59.38 17.09
  C 59.44 18.18 59.94 18.87 60.23 19.86
  Q 60.41 20.51 59.74 20.51
  L 56.50 20.53
  Q 55.92 20.54 56.06 19.97
  Q 57.22 15.33 56.70 9.58
  A 1.82 1.77 25.8 0 0 56.38 8.70
  Q 56.11 8.32 56.01 7.86
  Q 55.84 7.15 56.57 7.19
  Z"
/>
<path fill="#000000" d="
  M 123.72 18.22
  Q 122.82 20.08 121.36 20.32
  Q 120.48 20.47 121.00 19.75
  Q 121.52 19.03 121.77 18.19
  Q 121.91 17.68 121.49 17.37
  Q 118.83 15.45 115.96 14.56
  C 113.98 13.94 112.82 12.23 112.54 10.22
  Q 113.76 7.86 116.52 7.66
  A 1.13 1.12 -71.2 0 0 117.30 7.27
  Q 118.34 6.05 119.96 6.77
  Q 120.76 7.13 119.88 7.19
  Q 118.11 7.31 116.21 8.28
  A 1.89 1.88 -48.7 0 0 116.43 11.73
  C 118.75 12.56 121.75 13.21 123.54 14.94
  Q 125.58 16.90 123.72 18.22
  Z"
/>
<circle fill="#000000" cx="109.61" cy="8.56" r="1.50"/>
<path fill="#000000" d="
  M 74.84 9.95
  C 73.54 13.15 73.45 18.42 77.11 20.22
  Q 77.92 20.62 77.03 20.73
  Q 76.76 20.76 76.49 20.71
  C 69.02 19.38 69.33 8.10 76.86 7.28
  Q 77.63 7.20 77.08 7.75
  C 76.35 8.49 75.26 8.94 74.84 9.95
  Z"
/>
<path fill="#000000" d="
  M 78.34 20.00
  C 82.11 18.17 81.65 12.40 79.98 9.36
  Q 79.70 8.85 79.20 8.56
  L 77.82 7.77
  Q 77.02 7.32 77.94 7.33
  C 85.71 7.38 86.11 18.88 79.12 20.72
  Q 78.73 20.83 78.36 20.67
  Q 77.62 20.35 78.34 20.00
  Z"
/>
<path fill="#000000" d="
  M 103.53 7.77
  A 0.22 0.22 0.0 0 1 103.72 7.41
  Q 106.17 7.70 107.05 10.01
  Q 107.31 10.70 106.71 11.13
  Q 105.80 11.79 104.74 11.39
  A 0.89 0.89 0.0 0 1 104.19 10.38
  Q 104.50 8.92 103.53 7.77
  Z"
/>
<path fill="#000000" d="
  M 19.69 10.05
  L 15.63 15.93
  A 0.69 0.68 48.3 0 1 14.46 15.86
  Q 12.32 11.83 8.66 8.40
  A 0.50 0.50 0.0 0 1 9.01 7.54
  L 13.27 7.66
  Q 13.88 7.68 13.95 8.28
  Q 14.25 10.90 16.25 13.04
  A 0.59 0.59 0.0 0 0 17.21 12.89
  L 19.45 8.13
  Q 19.68 7.66 20.20 7.64
  L 23.56 7.58
  Q 24.48 7.56 24.07 8.38
  L 23.60 9.34
  Q 23.32 9.90 23.30 10.52
  Q 23.20 13.83 23.17 17.19
  Q 23.15 18.50 23.90 19.58
  A 0.63 0.63 0.0 0 1 23.36 20.56
  L 19.96 20.47
  Q 18.90 20.44 19.48 19.56
  C 19.96 18.81 20.22 18.01 20.22 17.13
  Q 20.21 13.71 20.46 10.32
  A 0.42 0.42 0.0 0 0 19.69 10.05
  Z"
/>
<path fill="#000000" d="
  M 48.23 9.45
  Q 48.39 13.07 48.35 16.56
  Q 48.33 18.40 49.29 20.02
  Q 49.62 20.57 48.98 20.56
  L 45.24 20.46
  Q 44.56 20.45 44.87 19.84
  C 46.06 17.48 45.67 14.44 45.71 11.82
  C 45.73 10.53 45.18 9.65 44.95 8.44
  Q 44.85 7.87 45.42 7.81
  Q 50.17 7.28 54.35 7.65
  Q 54.97 7.71 55.07 8.33
  L 55.37 10.12
  Q 55.65 11.77 54.56 10.50
  Q 52.28 7.86 49.08 8.39
  Q 48.19 8.54 48.23 9.45
  Z"
/>
<path fill="#000000" d="
  M 90.85 9.33
  L 95.91 19.76
  Q 96.26 20.49 95.45 20.50
  L 91.81 20.52
  Q 91.21 20.52 91.22 19.92
  Q 91.29 16.19 89.03 12.70
  Q 89.14 10.55 87.18 10.14
  Q 86.95 9.17 86.30 8.34
  Q 85.79 7.68 86.62 7.62
  Q 89.34 7.40 90.85 9.33
  Z"
/>
<path fill="#000000" d="
  M 103.54 20.24
  Q 105.30 19.32 105.24 17.43
  Q 105.22 16.87 104.72 16.59
  Q 102.38 15.27 99.76 14.65
  C 95.84 13.73 94.69 8.53 99.43 7.60
  Q 100.23 7.45 99.70 8.07
  Q 99.43 8.39 99.12 8.66
  C 97.91 9.74 98.67 11.18 100.00 11.69
  Q 102.51 12.66 104.94 13.53
  C 108.93 14.98 107.85 20.01 104.06 20.43
  C 101.26 20.75 96.93 20.99 95.95 17.83
  Q 95.49 16.35 97.05 15.93
  A 1.35 1.35 0.0 0 1 98.63 17.79
  C 98.03 19.15 99.34 20.09 100.56 20.05
  Q 101.75 20.01 102.90 20.31
  Q 103.23 20.40 103.54 20.24
  Z"
/>
<path fill="#000000" d="
  M 120.58 10.16
  Q 120.96 9.23 120.85 8.17
  Q 120.76 7.35 121.56 7.52
  Q 121.75 7.56 121.94 7.61
  Q 122.32 7.70 122.51 8.04
  Q 123.31 9.45 123.24 11.03
  Q 123.20 12.05 122.21 11.79
  L 121.27 11.55
  Q 120.12 11.25 120.58 10.16
  Z"
/>
<path fill="#000000" d="
  M 27.72 11.10
  L 27.99 11.99
  A 1.53 1.53 0.0 0 1 27.01 13.91
  Q 25.58 14.38 25.16 12.75
  A 1.51 1.50 66.3 0 1 25.80 11.10
  Q 30.69 8.01 33.65 12.71
  Q 34.03 13.30 33.96 14.00
  Q 33.66 17.12 34.88 19.78
  Q 35.08 20.22 34.64 20.41
  Q 32.17 21.51 31.21 19.46
  A 1.35 1.29 39.8 0 1 31.11 18.60
  Q 31.76 15.40 31.00 12.26
  Q 30.44 9.93 28.16 10.36
  Q 27.52 10.49 27.72 11.10
  Z"
/>
<path fill="#000000" d="
  M 39.85 20.82
  Q 37.64 19.64 37.04 17.46
  Q 36.13 14.14 34.17 11.14
  A 0.54 0.54 0.0 0 1 34.74 10.31
  Q 36.22 10.65 37.72 10.47
  Q 38.39 10.39 38.35 11.06
  Q 38.08 15.13 40.97 19.22
  A 1.20 1.20 0.0 0 1 40.61 20.94
  L 40.11 21.24
  Q 40.01 21.30 40.01 21.19
  Q 40.01 21.04 39.94 20.92
  Q 39.91 20.85 39.85 20.82
  Z"
/>
<path fill="#000000" d="
  M 87.18 10.14
  Q 87.43 12.00 86.43 13.73
  Q 86.15 14.23 86.52 14.71
  Q 86.77 15.03 87.14 14.89
  Q 87.31 14.83 87.44 14.99
  Q 87.66 15.29 87.30 15.24
  Q 86.79 15.16 86.42 15.42
  Q 85.32 16.18 85.69 14.89
  Q 86.33 12.67 87.18 10.14
  Z"
/>
<path fill="#000000" d="
  M 107.94 11.62
  Q 109.55 11.46 110.77 10.27
  A 0.33 0.33 0.0 0 1 111.33 10.51
  L 111.25 17.70
  Q 111.24 18.24 111.50 18.71
  L 112.12 19.87
  Q 112.46 20.49 111.75 20.49
  L 108.23 20.50
  Q 107.48 20.50 107.81 19.83
  Q 109.73 15.89 107.58 12.32
  Q 107.20 11.69 107.94 11.62
  Z"
/>
<path fill="#000000" d="
  M 41.61 16.40
  C 41.47 14.61 42.66 13.37 42.44 11.42
  Q 42.38 10.92 42.81 10.66
  Q 43.16 10.45 43.56 10.46
  A 0.53 0.53 0.0 0 1 44.02 11.19
  L 41.86 16.44
  Q 41.66 16.93 41.61 16.40
  Z"
/>
<path fill="#000000" d="
  M 63.54 18.15
  C 62.72 15.80 61.87 13.20 60.44 11.21
  Q 59.94 10.51 60.80 10.51
  L 64.05 10.50
  A 0.62 0.61 -86.7 0 1 64.66 11.19
  C 64.24 14.84 66.00 16.78 67.52 19.78
  A 0.66 0.66 0.0 0 1 66.91 20.74
  Q 64.40 20.63 63.54 18.15
  Z"
/>
<path fill="#000000" d="
  M 69.08 13.50
  C 68.19 14.62 68.43 15.82 67.98 17.08
  Q 67.91 17.27 67.72 17.22
  L 67.47 17.15
  A 0.07 0.07 0.0 0 1 67.42 17.06
  Q 68.48 14.07 68.80 10.93
  Q 68.84 10.52 69.25 10.50
  L 70.26 10.44
  Q 70.70 10.41 70.56 10.82
  Q 70.06 12.29 69.08 13.50
  Z"
/>
<path fill="#000000" d="
  M 9.74 11.20
  Q 10.35 12.14 10.24 13.26
  Q 9.92 16.63 10.82 19.78
  Q 11.03 20.51 10.27 20.51
  L 9.18 20.50
  Q 8.32 20.49 8.64 19.70
  Q 10.30 15.58 9.52 11.29
  Q 9.41 10.69 9.74 11.20
  Z"
/>
<path fill="#000000" d="
  M 49.44 13.90
  Q 50.29 12.98 51.40 12.66
  Q 52.22 12.43 52.08 13.27
  Q 51.93 14.23 52.09 15.15
  Q 52.21 15.82 51.57 15.60
  Q 50.38 15.17 49.45 14.26
  A 0.26 0.25 -47.4 0 1 49.44 13.90
  Z"
/>
<path fill="#000000" d="
  M 88.63 13.50
  Q 88.99 15.41 88.04 16.23
  L 87.84 15.47
  Q 87.71 15.01 88.04 14.66
  Q 88.50 14.16 88.63 13.50
  Z"
/>
<path fill="#000000" d="
  M 27.06 18.74
  A 1.70 1.70 0.0 0 0 29.05 19.92
  Q 29.51 19.83 29.98 19.81
  Q 30.82 19.78 30.07 20.16
  C 27.17 21.60 23.02 20.16 24.93 16.32
  Q 25.19 15.79 25.74 15.56
  L 30.26 13.64
  Q 30.43 13.57 30.55 13.71
  L 30.74 13.94
  Q 30.77 13.99 30.73 14.02
  C 29.30 14.99 26.47 16.72 27.06 18.74
  Z"
/>
<path fill="#000000" d="
  M 112.42 17.74
  A 1.49 1.48 -16.3 0 1 113.46 15.85
  Q 114.62 15.55 115.16 16.74
  Q 115.38 17.25 115.17 17.76
  Q 114.74 18.80 115.36 19.77
  Q 115.84 20.50 114.99 20.27
  Q 113.06 19.75 112.42 17.74
  Z"
/>
<path fill="#000000" d="
  M 85.55 16.48
  L 84.87 19.96
  Q 84.78 20.47 84.26 20.51
  L 83.26 20.58
  A 0.44 0.44 0.0 0 1 82.86 19.90
  L 85.19 16.33
  A 0.20 0.20 0.0 0 1 85.55 16.48
  Z"
/>
<path fill="#000000" d="
  M 126.56 19.46
  Q 126.55 19.31 126.54 19.16
  Q 131.94 20.35 132.64 26.10
  C 133.29 31.46 129.44 33.57 124.84 33.90
  C 120.66 34.20 116.79 32.67 112.65 33.00
  Q 110.57 33.17 108.45 33.44
  L 108.15 29.65
  Q 108.11 29.09 108.61 28.83
  L 126.56 19.46
  Z"
/>
<path fill="#000000" d="
  M 38.14 23.88
  Q 38.70 23.77 38.20 24.04
  L 37.17 24.62
  A 1.35 1.33 -36.5 0 1 35.56 24.39
  Q 33.89 22.67 35.52 21.56
  Q 36.42 20.94 37.24 21.75
  A 1.45 1.44 33.5 0 1 37.56 23.29
  Q 37.25 24.06 38.14 23.88
  Z"
/>
<path fill="#000000" d="
  M 64.41 23.80
  Q 65.45 23.08 65.71 21.70
  A 0.07 0.06 -73.0 0 1 65.79 21.65
  L 66.05 21.73
  Q 66.23 21.79 66.16 21.97
  Q 65.34 24.11 63.19 24.59
  A 1.76 1.75 70.2 0 1 61.25 23.67
  Q 60.35 21.90 62.16 21.43
  Q 63.09 21.19 63.64 21.98
  Q 63.99 22.48 63.78 23.05
  Q 63.72 23.23 63.71 23.42
  Q 63.70 24.28 64.41 23.80
  Z"
/>
</svg>
