<?xml version="1.0" encoding="UTF-8" standalone="no"?>
<!DOCTYPE svg PUBLIC "-//W3C//DTD SVG 1.1//EN" "http://www.w3.org/Graphics/SVG/1.1/DTD/svg11.dtd">
<svg xmlns="http://www.w3.org/2000/svg" version="1.1" viewBox="0.00 0.00 500.00 707.00">
<g stroke-width="0.70" fill="none" stroke-linecap="butt">
<path stroke="#d56594" vector-effect="non-scaling-stroke" d="
  M 177.98 107.08
  Q 174.84 103.32 171.16 100.09
  C 141.56 74.16 99.52 68.47 64.49 86.46
  C 26.41 106.01 6.07 147.96 14.50 190.27
  Q 17.47 205.22 26.64 221.12
  Q 36.71 238.60 47.61 257.22"
/>
<path stroke="#d66086" vector-effect="non-scaling-stroke" d="
  M 47.61 257.22
  Q 39.32 269.33 32.64 282.94
  Q 25.27 297.95 21.49 313.97
  C 10.31 361.30 33.89 408.57 80.01 425.48
  Q 91.87 429.82 107.70 433.37
  C 142.75 441.23 177.80 447.56 212.26 453.36
  Q 212.44 453.39 212.41 453.57
  L 212.41 453.58
  Q 212.39 453.74 212.23 453.72
  Q 189.57 451.10 165.33 450.53
  C 136.38 449.85 106.98 451.98 81.00 465.05
  Q 58.44 476.39 42.48 498.05
  C 20.27 528.20 4.00 565.47 1.33 602.18
  Q -0.15 622.53 4.64 638.58
  Q 13.96 669.82 40.05 687.80
  C 90.33 722.45 158.79 698.72 177.74 640.74
  Q 178.99 636.93 179.58 633.32
  Q 179.72 632.43 180.63 632.50
  Q 196.88 633.83 207.05 635.13
  Q 267.46 642.85 323.23 654.84
  Q 324.56 655.12 325.16 656.25
  Q 339.35 683.16 365.62 696.13
  C 388.87 707.61 415.84 708.47 439.47 698.81
  Q 471.91 685.56 487.55 653.44
  Q 491.33 645.67 494.03 634.20
  Q 497.56 619.22 498.17 605.86
  C 499.89 567.77 484.85 532.47 454.47 509.24
  Q 441.57 499.37 427.14 494.30
  Q 416.55 490.57 406.24 488.05
  C 381.12 481.94 354.91 476.09 328.70 471.53
  Q 328.64 471.52 328.60 471.55
  Q 328.53 471.59 328.62 471.60
  Q 328.66 471.61 328.71 471.62
  Q 329.32 471.76 329.94 471.51
  Q 330.40 471.32 330.89 471.39
  Q 356.60 475.01 381.36 477.08
  Q 392.63 478.03 403.68 477.65
  Q 423.45 476.97 439.89 469.38
  C 472.06 454.54 489.04 426.09 494.80 391.92
  C 503.78 338.59 492.42 282.49 464.99 236.76
  Q 459.65 227.85 454.34 221.39
  Q 433.93 196.52 403.07 190.48
  Q 366.82 183.38 335.06 204.84
  Q 331.42 207.30 327.21 211.24
  Q 321.76 216.33 319.91 218.49
  Q 294.75 247.84 298.51 287.63
  Q 298.63 288.90 297.37 288.70
  L 254.36 281.80
  A 0.63 0.62 -18.8 0 1 254.03 281.64
  Q 253.41 281.06 253.95 280.48
  Q 277.84 254.86 303.74 230.94
  C 311.74 223.56 321.08 215.89 329.82 208.34
  Q 334.21 204.54 351.44 191.95
  Q 357.76 187.34 367.84 181.13
  C 369.24 180.27 370.77 179.73 372.42 179.83
  Q 384.02 180.60 393.15 179.63
  C 421.63 176.60 447.07 159.04 460.52 133.96
  C 480.95 95.85 471.10 47.74 435.29 21.45
  C 417.32 8.25 394.52 1.22 372.26 0.79
  C 341.07 0.19 310.45 11.22 283.12 26.86
  Q 266.40 36.42 255.07 44.38
  Q 215.71 72.04 179.87 105.82
  C 179.38 106.28 178.55 106.66 177.98 107.08"
/>
<path stroke="#f53520" vector-effect="non-scaling-stroke" d="
  M 47.61 257.22
  Q 60.02 238.63 63.96 233.46
  Q 70.37 225.05 76.43 216.94
  Q 82.77 208.45 88.93 201.35
  Q 108.87 178.37 129.13 156.37
  Q 136.46 148.41 165.85 118.85
  Q 168.13 116.56 177.06 108.78
  C 177.54 108.36 177.79 107.65 177.98 107.08"
/>
</g>
<path fill="#b590fa" d="
  M 0.00 0.00
  L 500.00 0.00
  L 500.00 707.00
  L 0.00 707.00
  L 0.00 0.00
  Z
  M 177.98 107.08
  Q 174.84 103.32 171.16 100.09
  C 141.56 74.16 99.52 68.47 64.49 86.46
  C 26.41 106.01 6.07 147.96 14.50 190.27
  Q 17.47 205.22 26.64 221.12
  Q 36.71 238.60 47.61 257.22
  Q 39.32 269.33 32.64 282.94
  Q 25.27 297.95 21.49 313.97
  C 10.31 361.30 33.89 408.57 80.01 425.48
  Q 91.87 429.82 107.70 433.37
  C 142.75 441.23 177.80 447.56 212.26 453.36
  Q 212.44 453.39 212.41 453.57
  L 212.41 453.58
  Q 212.39 453.74 212.23 453.72
  Q 189.57 451.10 165.33 450.53
  C 136.38 449.85 106.98 451.98 81.00 465.05
  Q 58.44 476.39 42.48 498.05
  C 20.27 528.20 4.00 565.47 1.33 602.18
  Q -0.15 622.53 4.64 638.58
  Q 13.96 669.82 40.05 687.80
  C 90.33 722.45 158.79 698.72 177.74 640.74
  Q 178.99 636.93 179.58 633.32
  Q 179.72 632.43 180.63 632.50
  Q 196.88 633.83 207.05 635.13
  Q 267.46 642.85 323.23 654.84
  Q 324.56 655.12 325.16 656.25
  Q 339.35 683.16 365.62 696.13
  C 388.87 707.61 415.84 708.47 439.47 698.81
  Q 471.91 685.56 487.55 653.44
  Q 491.33 645.67 494.03 634.20
  Q 497.56 619.22 498.17 605.86
  C 499.89 567.77 484.85 532.47 454.47 509.24
  Q 441.57 499.37 427.14 494.30
  Q 416.55 490.57 406.24 488.05
  C 381.12 481.94 354.91 476.09 328.70 471.53
  Q 328.64 471.52 328.60 471.55
  Q 328.53 471.59 328.62 471.60
  Q 328.66 471.61 328.71 471.62
  Q 329.32 471.76 329.94 471.51
  Q 330.40 471.32 330.89 471.39
  Q 356.60 475.01 381.36 477.08
  Q 392.63 478.03 403.68 477.65
  Q 423.45 476.97 439.89 469.38
  C 472.06 454.54 489.04 426.09 494.80 391.92
  C 503.78 338.59 492.42 282.49 464.99 236.76
  Q 459.65 227.85 454.34 221.39
  Q 433.93 196.52 403.07 190.48
  Q 366.82 183.38 335.06 204.84
  Q 331.42 207.30 327.21 211.24
  Q 321.76 216.33 319.91 218.49
  Q 294.75 247.84 298.51 287.63
  Q 298.63 288.90 297.37 288.70
  L 254.36 281.80
  A 0.63 0.62 -18.8 0 1 254.03 281.64
  Q 253.41 281.06 253.95 280.48
  Q 277.84 254.86 303.74 230.94
  C 311.74 223.56 321.08 215.89 329.82 208.34
  Q 334.21 204.54 351.44 191.95
  Q 357.76 187.34 367.84 181.13
  C 369.24 180.27 370.77 179.73 372.42 179.83
  Q 384.02 180.60 393.15 179.63
  C 421.63 176.60 447.07 159.04 460.52 133.96
  C 480.95 95.85 471.10 47.74 435.29 21.45
  C 417.32 8.25 394.52 1.22 372.26 0.79
  C 341.07 0.19 310.45 11.22 283.12 26.86
  Q 266.40 36.42 255.07 44.38
  Q 215.71 72.04 179.87 105.82
  C 179.38 106.28 178.55 106.66 177.98 107.08
  Z"
/>
<path fill="#f62f12" d="
  M 47.61 257.22
  Q 60.02 238.63 63.96 233.46
  Q 70.37 225.05 76.43 216.94
  Q 82.77 208.45 88.93 201.35
  Q 108.87 178.37 129.13 156.37
  Q 136.46 148.41 165.85 118.85
  Q 168.13 116.56 177.06 108.78
  C 177.54 108.36 177.79 107.65 177.98 107.08
  C 178.55 106.66 179.38 106.28 179.87 105.82
  Q 215.71 72.04 255.07 44.38
  Q 266.40 36.42 283.12 26.86
  C 310.45 11.22 341.07 0.19 372.26 0.79
  C 394.52 1.22 417.32 8.25 435.29 21.45
  C 471.10 47.74 480.95 95.85 460.52 133.96
  C 447.07 159.04 421.63 176.60 393.15 179.63
  Q 384.02 180.60 372.42 179.83
  C 370.77 179.73 369.24 180.27 367.84 181.13
  Q 357.76 187.34 351.44 191.95
  Q 334.21 204.54 329.82 208.34
  C 321.08 215.89 311.74 223.56 303.74 230.94
  Q 277.84 254.86 253.95 280.48
  Q 253.41 281.06 254.03 281.64
  A 0.63 0.62 -18.8 0 0 254.36 281.80
  L 297.37 288.70
  Q 298.63 288.90 298.51 287.63
  Q 294.75 247.84 319.91 218.49
  Q 321.76 216.33 327.21 211.24
  Q 331.42 207.30 335.06 204.84
  Q 366.82 183.38 403.07 190.48
  Q 433.93 196.52 454.34 221.39
  Q 459.65 227.85 464.99 236.76
  C 492.42 282.49 503.78 338.59 494.80 391.92
  C 489.04 426.09 472.06 454.54 439.89 469.38
  Q 423.45 476.97 403.68 477.65
  Q 392.63 478.03 381.36 477.08
  Q 356.60 475.01 330.89 471.39
  Q 330.40 471.32 329.94 471.51
  Q 329.32 471.76 328.71 471.62
  Q 328.66 471.61 328.62 471.60
  Q 328.53 471.59 328.60 471.55
  Q 328.64 471.52 328.70 471.53
  C 354.91 476.09 381.12 481.94 406.24 488.05
  Q 416.55 490.57 427.14 494.30
  Q 441.57 499.37 454.47 509.24
  C 484.85 532.47 499.89 567.77 498.17 605.86
  Q 497.56 619.22 494.03 634.20
  Q 491.33 645.67 487.55 653.44
  Q 471.91 685.56 439.47 698.81
  C 415.84 708.47 388.87 707.61 365.62 696.13
  Q 339.35 683.16 325.16 656.25
  Q 324.56 655.12 323.23 654.84
  Q 267.46 642.85 207.05 635.13
  Q 196.88 633.83 180.63 632.50
  Q 179.72 632.43 179.58 633.32
  Q 178.99 636.93 177.74 640.74
  C 158.79 698.72 90.33 722.45 40.05 687.80
  Q 13.96 669.82 4.64 638.58
  Q -0.15 622.53 1.33 602.18
  C 4.00 565.47 20.27 528.20 42.48 498.05
  Q 58.44 476.39 81.00 465.05
  C 106.98 451.98 136.38 449.85 165.33 450.53
  Q 189.57 451.10 212.23 453.72
  Q 212.39 453.74 212.41 453.58
  L 212.41 453.57
  Q 212.44 453.39 212.26 453.36
  C 177.80 447.56 142.75 441.23 107.70 433.37
  Q 91.87 429.82 80.01 425.48
  C 33.89 408.57 10.31 361.30 21.49 313.97
  Q 25.27 297.95 32.64 282.94
  Q 39.32 269.33 47.61 257.22
  Z"
/>
<path fill="#f43a2d" d="
  M 177.98 107.08
  C 177.79 107.65 177.54 108.36 177.06 108.78
  Q 168.13 116.56 165.85 118.85
  Q 136.46 148.41 129.13 156.37
  Q 108.87 178.37 88.93 201.35
  Q 82.77 208.45 76.43 216.94
  Q 70.37 225.05 63.96 233.46
  Q 60.02 238.63 47.61 257.22
  Q 36.71 238.60 26.64 221.12
  Q 17.47 205.22 14.50 190.27
  C 6.07 147.96 26.41 106.01 64.49 86.46
  C 99.52 68.47 141.56 74.16 171.16 100.09
  Q 174.84 103.32 177.98 107.08
  Z"
/>
</svg>
